<?xml version="1.0" encoding="UTF-8"?>
<svg width="14px" height="22px" viewBox="0 0 14 22" version="1.1" xmlns="http://www.w3.org/2000/svg" xmlns:xlink="http://www.w3.org/1999/xlink">
    <title>right</title>
    <g id="Page-1" stroke="none" stroke-width="1" fill="none" fill-rule="evenodd">
        <g id="right" transform="translate(7.000000, 11.000000) scale(-1, 1) translate(-7.000000, -11.000000) " fill="#828282" fill-rule="nonzero" stroke="#828282" stroke-width="0.4">
            <path d="M13.2000015,11.0043 L13.2000015,11.0045 C13.2004,11.1826 13.1191,11.347 12.9855,11.4635 L12.9853,11.4636 L1.99142,21.0288 L1.98885,21.0311 L1.98883,21.0311 C1.71449,21.2616 1.28609,21.2558 1.01968,21.0159 L1.01965,21.0159 C0.744472,20.7679 0.744444,20.3625 1.01967,20.1146 L1.02222,20.1123 L1.02224,20.1123 L11.4889,11.0049 L1.02386,1.90062 C1.02339,1.90023 1.02293,1.89983 1.02246,1.89944 C0.733214,1.65502 0.724104,1.2385 1.00638,0.984138 L1.00642,0.984106 C1.27286,0.744139 1.70119,0.738432 1.97553,0.968903 L1.9756,0.968956 C1.98102,0.973513 1.98635,0.978136 1.99162,0.982861 C1.99208,0.983269 1.99253,0.983679 1.99299,0.984089 L12.9841,10.5468 L13.2000015,11.0043 Z M13.2,11.0043 C13.1995,10.8266 13.1179,10.663 12.9844,10.547 L13.2,11.0043 Z" id="Shape"></path>
        </g>
    </g>
</svg>