<svg width="25" height="31" viewBox="0 0 25 31" fill="none" xmlns="http://www.w3.org/2000/svg">
<path d="M21.7802 27.8912C21.5294 27.8912 21.3261 28.0945 21.3261 28.3453V29.6394C21.3261 29.8889 21.1231 30.0919 20.8735 30.0919H1.4955C1.24598 30.0919 1.04297 29.8889 1.04297 29.6394V5.93164C1.04297 5.68086 0.839652 5.47754 0.588867 5.47754C0.338082 5.47754 0.134766 5.68086 0.134766 5.93164V29.6394C0.134705 30.3897 0.745139 31.0001 1.4955 31.0001H20.8736C21.6239 31.0001 22.2344 30.3897 22.2344 29.6394V28.3453C22.2343 28.0945 22.031 27.8912 21.7802 27.8912Z" fill="#333333"/>
<path d="M0.588867 4.27152C0.839652 4.27152 1.04297 4.0682 1.04297 3.81742V1.36073C1.04297 1.11122 1.24598 0.908203 1.4955 0.908203H16.4219V5.35755C16.4219 5.60834 16.6251 5.81165 16.8759 5.81165L21.3262 5.81238V15.0754C21.3262 15.3262 21.5295 15.5295 21.7803 15.5295C22.0311 15.5295 22.2344 15.3262 22.2344 15.0754V5.3584C22.2344 5.23797 22.1865 5.12245 22.1014 5.03732L17.1971 0.133021C17.1119 0.047832 16.9965 0 16.876 0H1.49556C0.745199 0 0.134766 0.610434 0.134766 1.36073V3.81742C0.134766 4.0682 0.338082 4.27152 0.588867 4.27152ZM17.3301 1.55036L20.6838 4.90412L17.3301 4.90357V1.55036Z" fill="#333333"/>
<path d="M24.4111 16.4038H5.76416C5.51337 16.4038 5.31006 16.6071 5.31006 16.8579V26.5454C5.31006 26.7962 5.51337 26.9995 5.76416 26.9995H9.31299C9.56378 26.9995 9.7671 26.7962 9.7671 26.5454C9.7671 26.2946 9.56378 26.0913 9.31299 26.0913H6.21826V17.312H23.957V26.0913H11.4169C11.1661 26.0913 10.9628 26.2946 10.9628 26.5454C10.9628 26.7962 11.1661 26.9995 11.4169 26.9995H24.411C24.6618 26.9995 24.8651 26.7962 24.8651 26.5454V16.8579C24.8652 16.6071 24.6619 16.4038 24.4111 16.4038Z" fill="#333333"/>
<path d="M16.6276 7.95996H5.76416C5.51337 7.95996 5.31006 8.16328 5.31006 8.41406C5.31006 8.66485 5.51337 8.86816 5.76416 8.86816H16.6276C16.8784 8.86816 17.0817 8.66485 17.0817 8.41406C17.0817 8.16328 16.8784 7.95996 16.6276 7.95996Z" fill="#333333"/>
<path d="M16.6276 10.6379H5.76416C5.51337 10.6379 5.31006 10.8413 5.31006 11.092C5.31006 11.3428 5.51337 11.5461 5.76416 11.5461H16.6276C16.8784 11.5461 17.0817 11.3428 17.0817 11.092C17.0817 10.8413 16.8784 10.6379 16.6276 10.6379Z" fill="#333333"/>
<path d="M16.6276 13.3696H14.4814C14.2307 13.3696 14.0273 13.5729 14.0273 13.8237C14.0273 14.0745 14.2307 14.2778 14.4814 14.2778H16.6276C16.8784 14.2778 17.0818 14.0745 17.0818 13.8237C17.0818 13.5729 16.8784 13.3696 16.6276 13.3696Z" fill="#333333"/>
<path d="M5.76416 13.3696C5.51337 13.3696 5.31006 13.5729 5.31006 13.8237C5.31006 14.0745 5.51337 14.2778 5.76416 14.2778H12.3442C12.595 14.2778 12.7983 14.0745 12.7983 13.8237C12.7983 13.5729 12.595 13.3696 12.3442 13.3696H5.76416Z" fill="#333333"/>
<path d="M12.1562 20.7082V19.878C12.1562 19.0795 11.5066 18.4299 10.7081 18.4299H8.78516C8.53437 18.4299 8.33105 18.6332 8.33105 18.884V24.5205C8.33105 24.7713 8.53437 24.9746 8.78516 24.9746C9.03594 24.9746 9.23926 24.7713 9.23926 24.5205V22.1564H10.7081C11.5065 22.1563 12.1562 21.5067 12.1562 20.7082ZM11.248 20.7082C11.248 21.0059 11.0058 21.2481 10.7081 21.2481H9.23926V19.3381H10.7081C11.0058 19.3381 11.248 19.5803 11.248 19.878V20.7082Z" fill="#333333"/>
<path d="M21.5136 19.3379C21.7644 19.3379 21.9677 19.1346 21.9677 18.8838C21.9677 18.633 21.7644 18.4297 21.5136 18.4297H18.5967C18.3459 18.4297 18.1426 18.633 18.1426 18.8838V24.5203C18.1426 24.7711 18.3459 24.9744 18.5967 24.9744C18.8475 24.9744 19.0508 24.7711 19.0508 24.5203V22.1562H21.5136C21.7644 22.1562 21.9677 21.9528 21.9677 21.7021C21.9677 21.4513 21.7644 21.248 21.5136 21.248H19.0508V19.3379H21.5136V19.3379Z" fill="#333333"/>
<path d="M15.5518 24.9746C16.3503 24.9746 16.9999 24.325 16.9999 23.5265V19.878C16.9999 19.0795 16.3503 18.4299 15.5518 18.4299H13.6289C13.3781 18.4299 13.1748 18.6332 13.1748 18.884V24.5205C13.1748 24.7713 13.3781 24.9746 13.6289 24.9746H15.5518V24.9746ZM14.083 19.3381H15.5518C15.8495 19.3381 16.0917 19.5803 16.0917 19.878V23.5264C16.0917 23.8241 15.8495 24.0663 15.5518 24.0663H14.083V19.3381Z" fill="#333333"/>
</svg>
