<svg width="14" height="22" viewBox="0 0 14 22" fill="none" xmlns="http://www.w3.org/2000/svg">
<path d="M13.2 11.0043L13.2 11.0045C13.2004 11.1826 13.1191 11.347 12.9855 11.4635L12.9853 11.4636L1.99142 21.0288L1.98885 21.0311L1.98883 21.0311C1.71449 21.2616 1.28609 21.2558 1.01968 21.0159L1.01965 21.0159C0.744472 20.7679 0.744444 20.3625 1.01967 20.1146L1.02222 20.1123L1.02224 20.1123L11.4889 11.0049L1.02386 1.90062C1.02339 1.90023 1.02293 1.89983 1.02246 1.89944C0.733214 1.65502 0.724104 1.2385 1.00638 0.984138L1.00642 0.984106C1.27286 0.744139 1.70119 0.738432 1.97553 0.968903L1.9756 0.968956C1.98102 0.973513 1.98635 0.978136 1.99162 0.982861C1.99208 0.983269 1.99253 0.983679 1.99299 0.984089L12.9841 10.5468L13.2 11.0043ZM13.2 11.0043C13.1995 10.8266 13.1179 10.663 12.9844 10.547L13.2 11.0043Z" fill="#828282" stroke="#828282" stroke-width="0.4"/>
</svg>
