<svg width="396" height="148" viewBox="0 0 396 148" fill="none" xmlns="http://www.w3.org/2000/svg">
<path d="M104 144H69V110.8H1.6V85.6L68.4 3.99999H104V82.8H123.4V110.8H104V144ZM69 47.6L39.6 82.8H69V47.6ZM231.892 136.2C222.159 143.267 210.892 146.8 198.092 146.8C185.292 146.8 174.026 143.267 164.292 136.2C154.826 129.267 147.759 120.333 143.092 109.4C138.559 98.6 136.292 86.8 136.292 74C136.292 46.4 145.626 25.6667 164.292 11.8C174.026 4.73333 185.292 1.19999 198.092 1.19999C210.892 1.19999 222.159 4.73333 231.892 11.8C241.359 18.7333 248.426 27.7333 253.092 38.8C257.626 49.4667 259.892 61.2 259.892 74C259.892 101.6 250.559 122.333 231.892 136.2ZM198.092 113.8C206.359 113.8 212.692 109.867 217.092 102C221.626 94.2667 223.892 84.9333 223.892 74C223.892 63.0667 221.626 53.7333 217.092 46C212.692 38.1333 206.359 34.2 198.092 34.2C190.092 34.2 183.759 38.1333 179.092 46C174.559 53.7333 172.292 63.0667 172.292 74C172.292 84.9333 174.559 94.2667 179.092 102C183.759 109.867 190.092 113.8 198.092 113.8Z" fill="#333333"/>
<path d="M374.703 144H339.703V110.8H272.303V85.6L339.103 3.99999H374.703V82.8H394.103V110.8H374.703V144ZM339.703 47.6L310.303 82.8H339.703V47.6Z" fill="#FFDB2D"/>
<path d="M104 144V145H105V144H104ZM69 144H68V145H69V144ZM69 110.8H70V109.8H69V110.8ZM1.6 110.8H0.6V111.8H1.6V110.8ZM1.6 85.6L0.826212 84.9666L0.6 85.2429V85.6H1.6ZM68.4 3.99999V2.99999H67.9263L67.6262 3.36655L68.4 3.99999ZM104 3.99999H105V2.99999H104V3.99999ZM104 82.8H103V83.8H104V82.8ZM123.4 82.8H124.4V81.8H123.4V82.8ZM123.4 110.8V111.8H124.4V110.8H123.4ZM104 110.8V109.8H103V110.8H104ZM69 47.6H70V44.8428L68.2325 46.959L69 47.6ZM39.6 82.8L38.8325 82.159L37.4619 83.8H39.6V82.8ZM69 82.8V83.8H70V82.8H69ZM104 143H69V145H104V143ZM70 144V110.8H68V144H70ZM69 109.8H1.6V111.8H69V109.8ZM2.6 110.8V85.6H0.6V110.8H2.6ZM2.37379 86.2334L69.1738 4.63343L67.6262 3.36655L0.826212 84.9666L2.37379 86.2334ZM68.4 4.99999H104V2.99999H68.4V4.99999ZM103 3.99999V82.8H105V3.99999H103ZM104 83.8H123.4V81.8H104V83.8ZM122.4 82.8V110.8H124.4V82.8H122.4ZM123.4 109.8H104V111.8H123.4V109.8ZM103 110.8V144H105V110.8H103ZM68.2325 46.959L38.8325 82.159L40.3675 83.441L69.7675 48.241L68.2325 46.959ZM39.6 83.8H69V81.8H39.6V83.8ZM70 82.8V47.6H68V82.8H70ZM231.892 136.2L232.48 137.009L232.489 137.003L231.892 136.2ZM164.292 136.2L163.701 137.007L163.705 137.009L164.292 136.2ZM143.092 109.4L142.17 109.787L142.172 109.793L143.092 109.4ZM164.292 11.8L163.705 10.9907L163.696 10.9973L164.292 11.8ZM231.892 11.8L232.483 10.9932L232.48 10.9908L231.892 11.8ZM253.092 38.8L252.171 39.1885L252.172 39.1911L253.092 38.8ZM217.092 102L216.229 101.494L216.224 101.503L216.219 101.512L217.092 102ZM217.092 46L216.219 46.4882L216.224 46.497L216.229 46.5057L217.092 46ZM179.092 46L178.232 45.4898L178.229 45.4943L179.092 46ZM179.092 102L178.229 102.506L178.232 102.51L179.092 102ZM231.305 135.391C221.753 142.325 210.695 145.8 198.092 145.8V147.8C211.089 147.8 222.564 144.208 232.48 137.009L231.305 135.391ZM198.092 145.8C185.489 145.8 174.431 142.325 164.88 135.391L163.705 137.009C173.62 144.208 185.095 147.8 198.092 147.8V145.8ZM164.883 135.393C155.563 128.567 148.609 119.778 144.012 109.007L142.172 109.793C146.909 120.889 154.088 129.966 163.701 137.007L164.883 135.393ZM144.014 109.013C139.537 98.3465 137.292 86.6795 137.292 74H135.292C135.292 86.9205 137.581 98.8535 142.17 109.787L144.014 109.013ZM137.292 74C137.292 46.6495 146.525 26.2442 164.889 12.6027L163.696 10.9973C144.726 25.0892 135.292 46.1504 135.292 74H137.292ZM164.88 12.6092C174.431 5.67473 185.489 2.19999 198.092 2.19999V0.199991C185.095 0.199991 173.62 3.79192 163.705 10.9908L164.88 12.6092ZM198.092 2.19999C210.695 2.19999 221.753 5.67473 231.305 12.6092L232.48 10.9908C222.564 3.79192 211.089 0.199991 198.092 0.199991V2.19999ZM231.301 12.6068C240.618 19.4306 247.573 28.2845 252.171 39.1885L254.014 38.4114C249.278 27.1822 242.099 18.0361 232.483 10.9932L231.301 12.6068ZM252.172 39.1911C256.647 49.7218 258.892 61.3203 258.892 74H260.892C260.892 61.0797 258.604 49.2116 254.013 38.4089L252.172 39.1911ZM258.892 74C258.892 101.35 249.659 121.756 231.296 135.397L232.489 137.003C251.458 122.911 260.892 101.85 260.892 74H258.892ZM198.092 114.8C206.759 114.8 213.408 110.636 217.965 102.488L216.219 101.512C211.977 109.097 205.958 112.8 198.092 112.8V114.8ZM217.955 102.506C222.596 94.5886 224.892 85.0722 224.892 74H222.892C222.892 84.7945 220.655 93.9447 216.229 101.494L217.955 102.506ZM224.892 74C224.892 62.9278 222.596 53.4114 217.955 45.4943L216.229 46.5057C220.655 54.0553 222.892 63.2055 222.892 74H224.892ZM217.965 45.5118C213.408 37.364 206.759 33.2 198.092 33.2V35.2C205.958 35.2 211.977 38.9026 216.219 46.4882L217.965 45.5118ZM198.092 33.2C189.683 33.2 183.048 37.3714 178.232 45.4898L179.952 46.5102C184.47 38.8953 190.502 35.2 198.092 35.2V33.2ZM178.229 45.4943C173.588 53.4114 171.292 62.9278 171.292 74H173.292C173.292 63.2055 175.529 54.0553 179.955 46.5057L178.229 45.4943ZM171.292 74C171.292 85.0722 173.588 94.5886 178.229 102.506L179.955 101.494C175.529 93.9447 173.292 84.7945 173.292 74H171.292ZM178.232 102.51C183.048 110.629 189.683 114.8 198.092 114.8V112.8C190.502 112.8 184.47 109.105 179.952 101.49L178.232 102.51ZM374.703 144V145H375.703V144H374.703ZM339.703 144H338.703V145H339.703V144ZM339.703 110.8H340.703V109.8H339.703V110.8ZM272.303 110.8H271.303V111.8H272.303V110.8ZM272.303 85.6L271.529 84.9666L271.303 85.2429V85.6H272.303ZM339.103 3.99999V2.99999H338.629L338.329 3.36655L339.103 3.99999ZM374.703 3.99999H375.703V2.99999H374.703V3.99999ZM374.703 82.8H373.703V83.8H374.703V82.8ZM394.103 82.8H395.103V81.8H394.103V82.8ZM394.103 110.8V111.8H395.103V110.8H394.103ZM374.703 110.8V109.8H373.703V110.8H374.703ZM339.703 47.6H340.703V44.8428L338.936 46.959L339.703 47.6ZM310.303 82.8L309.536 82.159L308.165 83.8H310.303V82.8ZM339.703 82.8V83.8H340.703V82.8H339.703ZM374.703 143H339.703V145H374.703V143ZM340.703 144V110.8H338.703V144H340.703ZM339.703 109.8H272.303V111.8H339.703V109.8ZM273.303 110.8V85.6H271.303V110.8H273.303ZM273.077 86.2334L339.877 4.63343L338.329 3.36655L271.529 84.9666L273.077 86.2334ZM339.103 4.99999H374.703V2.99999H339.103V4.99999ZM373.703 3.99999V82.8H375.703V3.99999H373.703ZM374.703 83.8H394.103V81.8H374.703V83.8ZM393.103 82.8V110.8H395.103V82.8H393.103ZM394.103 109.8H374.703V111.8H394.103V109.8ZM373.703 110.8V144H375.703V110.8H373.703ZM338.936 46.959L309.536 82.159L311.071 83.441L340.471 48.241L338.936 46.959ZM310.303 83.8H339.703V81.8H310.303V83.8ZM340.703 82.8V47.6H338.703V82.8H340.703Z" fill="#333333"/>
</svg>
