<svg width="70" height="70" viewBox="0 0 70 70" fill="none" xmlns="http://www.w3.org/2000/svg">
<path d="M64.7037 68.5601V61.7527C64.6596 60.4274 64.1089 59.1719 63.1689 58.2534C62.2288 57.3349 60.9736 56.8258 59.6703 56.8346L54.2759 56.8309C54.257 56.8309 54.2388 56.8233 54.2254 56.8096C54.212 56.796 54.2045 56.7775 54.2045 56.7582V55.3583C55.5017 54.5737 56.5579 53.4363 57.2544 52.0742C57.8753 52.2521 58.5393 52.1853 59.114 51.8873C59.6887 51.5892 60.132 51.0818 60.3553 50.4661C60.5787 49.8504 60.5658 49.1717 60.3192 48.5652C60.0727 47.9588 59.6105 47.4691 59.0249 47.1939C59.4539 46.0423 59.6289 44.8089 59.5373 43.5809C59.4457 42.3529 59.0898 41.1604 58.4949 40.0879C57.8999 39.0153 57.0805 38.089 56.0946 37.3745C55.1086 36.6601 53.9804 36.1749 52.7896 35.9534C51.5989 35.7319 50.3749 35.7795 49.2043 36.0928C48.0336 36.4061 46.945 36.9774 46.0155 37.7663C45.0861 38.5552 44.3385 39.5425 43.8257 40.658C43.313 41.7736 43.0475 42.9903 43.0483 44.2218C43.048 45.2442 43.2328 46.2579 43.5937 47.2121C43.0094 47.4875 42.5486 47.9767 42.303 48.5823C42.0574 49.1878 42.0449 49.8653 42.2682 50.4798C42.4915 51.0942 42.9341 51.6006 43.5078 51.8979C44.0816 52.1953 44.7443 52.2619 45.3642 52.0844C46.06 53.4416 47.1136 54.5747 48.407 55.3568V56.7582C48.407 56.7677 48.4051 56.7772 48.4015 56.786C48.3979 56.7948 48.3926 56.8029 48.386 56.8096C48.3794 56.8164 48.3715 56.8217 48.3628 56.8254C48.3542 56.829 48.3449 56.8309 48.3355 56.8309H42.7531C41.4715 56.8325 40.2429 57.3511 39.3366 58.2731C38.4304 59.1951 37.9207 60.4452 37.9191 61.7491V68.542H35.0129V62.6857C35.0129 58.7304 31.958 55.9684 27.5828 55.9684H24.1291C24.0926 55.575 24.079 55.1969 24.074 54.8238C25.0116 53.8571 25.7041 52.6728 26.0918 51.3732H26.5736C27.0511 51.3726 27.5089 51.1793 27.8466 50.8358C28.1843 50.4922 28.3742 50.0265 28.3748 49.5406V47.772C28.3735 47.3347 28.2184 46.9124 27.9376 46.5813C27.6568 46.2503 27.2687 46.0324 26.8437 45.9671C28.6786 41.3086 26.0739 38.5255 25.9689 38.4179C21.9426 33.955 17.8291 36.3817 16.6647 37.234C16.5178 37.3448 16.351 37.4254 16.1737 37.4711C14.3274 37.9074 13.0944 38.8368 12.5098 40.2345C11.6856 42.2016 12.4161 44.5774 13.0101 45.9751C12.5985 46.0547 12.227 46.2777 11.9594 46.6058C11.6919 46.9338 11.545 47.3465 11.5441 47.7728V49.5413C11.5447 50.0273 11.7347 50.4932 12.0725 50.8368C12.4104 51.1803 12.8684 51.3735 13.346 51.3739H13.9951C14.3774 52.6559 15.0555 53.8263 15.9728 54.7875C15.9807 55.1722 15.9728 55.5663 15.9442 55.9692H12.1488C7.77369 55.9692 4.71517 58.7326 4.71517 62.6864V68.5696C4.55338 68.5989 4.40681 68.6849 4.30081 68.8127C4.19481 68.9405 4.13605 69.102 4.13477 69.2692C4.13477 69.462 4.21008 69.647 4.34413 69.7834C4.47817 69.9198 4.65997 69.9964 4.84954 69.9964H64.6308C64.8141 69.9986 64.9911 69.9285 65.1247 69.8008C65.2583 69.6731 65.3381 69.4977 65.3474 69.3114C65.3566 69.1251 65.2946 68.9424 65.1743 68.8017C65.0541 68.6609 64.8849 68.5731 64.7023 68.5565L64.7037 68.5601ZM26.5828 47.3983C26.6791 47.4018 26.7703 47.4427 26.8378 47.5127C26.9052 47.5826 26.9437 47.6763 26.9453 47.7742V49.5428C26.9451 49.643 26.9058 49.7391 26.8362 49.81C26.7665 49.8809 26.6721 49.9208 26.5736 49.9209H26.4306C26.5448 49.2499 26.6027 48.5702 26.6036 47.8891C26.6057 47.7269 26.59 47.5633 26.5828 47.3997V47.3983ZM24.2112 57.425H25.9546L25.084 59.1056C25.0152 59.2382 24.9884 59.3892 25.0072 59.5378C25.0261 59.6865 25.0895 59.8256 25.189 59.9361L25.9517 60.7819L22.6473 65.8636L24.2112 57.425ZM13.5412 49.9209H13.3475C13.2489 49.9208 13.1544 49.8809 13.0846 49.81C13.0148 49.7392 12.9755 49.6431 12.9751 49.5428V47.7742C12.9755 47.6739 13.0148 47.5779 13.0846 47.507C13.1544 47.4361 13.2489 47.3962 13.3475 47.3961H13.4861C13.4861 47.5604 13.4861 47.7291 13.4861 47.8891C13.4861 48.2804 13.5097 48.6607 13.544 49.0352L13.5412 49.9209ZM13.8128 43.9353C13.48 42.9179 13.4848 41.8175 13.8264 40.8032C14.2281 39.8447 15.1022 39.2193 16.4981 38.8891C16.859 38.8012 17.1992 38.6412 17.4988 38.4186C18.6832 37.554 21.776 35.9207 24.9325 39.4178C25.0182 39.5087 26.7644 41.4242 25.7495 44.7745L25.5043 44.1701C24.8138 42.3441 22.7731 42.1165 21.7989 42.1165C21.5845 42.1165 21.4165 42.1281 21.3321 42.1354C18.4981 42.0307 17.4495 40.6083 17.4102 40.5537C17.3273 40.4295 17.2084 40.3346 17.07 40.2825C16.9316 40.2303 16.7807 40.2235 16.6383 40.2628C14.9664 40.7173 14.1816 42.3943 13.8128 43.9367V43.9353ZM14.9128 47.8891C14.9128 47.1888 14.9235 46.5292 14.95 45.9002C15.0558 44.5185 15.4646 42.4881 16.624 41.8278C17.9206 42.9935 19.5993 43.6229 21.3293 43.592C21.3622 43.592 21.3965 43.592 21.4286 43.5876C21.4608 43.5833 23.663 43.3608 24.1734 44.7097L25.084 46.9488C25.0992 46.9805 25.1169 47.0109 25.1369 47.0397C25.1583 47.3233 25.1762 47.607 25.1762 47.8898C25.1762 52.011 22.9683 55.1183 20.0406 55.1183C17.1129 55.1183 14.9128 52.0117 14.9128 47.8906V47.8891ZM15.762 57.425L17.3252 65.8607L14.0215 60.7789L14.7842 59.9332C14.8837 59.8227 14.9471 59.6836 14.966 59.5349C14.9848 59.3862 14.958 59.2353 14.8892 59.1027L14.0179 57.4221L15.762 57.425ZM6.14898 68.5441V62.6879C6.14898 59.0518 9.16319 57.425 12.1531 57.425H12.4047L13.3904 59.334L12.5912 60.2212C12.483 60.3405 12.4172 60.4933 12.4043 60.6551C12.3913 60.817 12.432 60.9786 12.5198 61.1142L17.353 68.547L6.14898 68.5441ZM20.696 68.5441H19.2765L17.8105 60.6299C19.2566 60.8585 20.7299 60.8415 22.1706 60.5797L20.696 68.5441ZM17.5282 59.11L17.2308 57.5021C17.3147 56.947 17.3707 56.4086 17.3988 55.887C18.2089 56.3363 19.1168 56.5717 20.0395 56.5717C20.9622 56.5717 21.8701 56.3363 22.6802 55.887C22.7107 56.2637 22.7531 56.6481 22.8074 57.0403C22.8074 57.0789 22.8074 57.1182 22.8074 57.1567L22.4558 59.0526C20.8359 59.4272 19.1563 59.4473 17.5282 59.1115V59.11ZM33.5833 68.5441H22.6188L27.4513 61.1113C27.5391 60.9757 27.5797 60.8141 27.5668 60.6523C27.5538 60.4904 27.488 60.3376 27.3798 60.2183L26.58 59.3311L27.5685 57.425H27.58C30.5663 57.425 33.5805 59.0525 33.5805 62.6879L33.5833 68.5441ZM59.6724 58.2904C60.5949 58.2881 61.4831 58.6461 62.1537 59.2906C62.8243 59.9351 63.2261 60.817 63.2763 61.7541V68.5223H61.1863V63.9736C61.1863 63.7807 61.111 63.5957 60.977 63.4594C60.8429 63.323 60.6611 63.2464 60.4715 63.2464C60.282 63.2464 60.1002 63.323 59.9661 63.4594C59.8321 63.5957 59.7568 63.7807 59.7568 63.9736V68.5223H53.7034L52.9171 63.2464L53.0744 62.6108C53.2654 62.7257 53.483 62.7867 53.7048 62.7875C53.7456 62.7875 53.7877 62.7875 53.8299 62.7817C54.0065 62.7636 54.1773 62.7075 54.3309 62.6169C54.4845 62.5264 54.6173 62.4036 54.7205 62.2567L57.4895 58.2904H59.6724ZM54.4196 58.2904H55.7355L53.6777 61.2371L52.2596 59.899L54.4196 58.2904ZM52.8085 57.0505C52.8427 57.2261 52.9073 57.394 52.9993 57.5465L51.1653 58.9136L49.597 57.5937C49.7029 57.428 49.7758 57.2427 49.8115 57.0483C49.8302 56.9545 49.8395 56.859 49.8393 56.7633V55.9634C50.8018 56.2259 51.8153 56.2259 52.7778 55.9634V56.7633C52.7778 56.8593 52.7874 56.955 52.8063 57.0491L52.8085 57.0505ZM51.1381 60.827L51.8714 61.5192L51.6334 62.4792H50.6699L50.4719 61.456L51.1381 60.827ZM50.6971 63.9387H51.5748L52.2603 68.5201H50.0123L50.6971 63.9387ZM59.0856 49.5624C59.084 49.7209 59.0507 49.8774 58.9876 50.0224C58.9246 50.1673 58.8332 50.2977 58.7191 50.4056C58.6049 50.5134 58.4704 50.5965 58.3236 50.6497C58.1769 50.7029 58.021 50.7251 57.8655 50.715C58.1264 50.0051 58.3179 49.2707 58.4373 48.5225C58.63 48.6164 58.7927 48.7637 58.907 48.9473C59.0213 49.131 59.0825 49.3436 59.0835 49.561L59.0856 49.5624ZM43.5751 49.5624C43.5759 49.3516 43.6338 49.1451 43.7424 48.9655C43.8509 48.7859 44.006 48.6402 44.1905 48.5443C44.3117 49.285 44.5032 50.012 44.7623 50.715C44.6091 50.721 44.4563 50.6956 44.3129 50.6405C44.1695 50.5853 44.0384 50.5014 43.9274 50.3938C43.8164 50.2862 43.7277 50.1571 43.6666 50.0141C43.6055 49.871 43.5731 49.717 43.5715 49.561L43.5751 49.5624ZM44.9611 43.3949C44.7953 43.4049 44.6381 43.4733 44.5165 43.5884C44.6722 41.8625 45.4567 40.2582 46.7158 39.0908C47.9749 37.9233 49.6176 37.2772 51.3211 37.2792C53.0246 37.2812 54.6658 37.9312 55.9223 39.1016C57.1787 40.272 57.9596 41.8781 58.1114 43.6044C58.0776 43.5645 58.0394 43.5287 57.9977 43.4975C57.9132 43.4464 57.8193 43.4135 57.7218 43.401C57.6243 43.3885 57.5252 43.3966 57.4309 43.4248C52.6927 44.8326 50.8958 41.5238 50.8243 41.3886C50.764 41.2705 50.673 41.1715 50.5612 41.1023C50.4494 41.0332 50.3211 40.9967 50.1903 40.9966C50.0596 40.9965 49.9314 41.0329 49.8197 41.1017C49.7079 41.1706 49.6168 41.2693 49.5563 41.3871C48.7829 42.8786 45.9746 43.3419 44.9575 43.3935L44.9611 43.3949ZM45.4614 46.5496C45.4614 45.9621 45.5076 45.3756 45.5993 44.7956C46.6458 44.669 48.8722 44.2523 50.1796 42.9339C51.1567 44.0756 53.3246 45.8304 57.0621 45.0181C57.1325 45.5254 57.1678 46.0372 57.1679 46.5496C57.1679 51.0474 54.5418 54.7067 51.3139 54.7067C48.086 54.7067 45.4571 51.0438 45.4571 46.5481L45.4614 46.5496ZM48.1868 58.2933L50.0566 59.8663L48.6271 61.2153L46.753 58.2955L48.1868 58.2933ZM39.353 61.7541C39.3539 60.8358 39.7129 59.9554 40.3511 59.306C40.9894 58.6566 41.8548 58.2914 42.7574 58.2904H45.0447L47.5521 62.1955C47.7287 62.4703 48.0032 62.6647 48.3179 62.7377C48.6325 62.8106 48.9627 62.7566 49.2389 62.5868L49.3626 63.2275L48.5721 68.5223H42.8753V63.9736C42.8753 63.7807 42.8 63.5957 42.666 63.4594C42.5319 63.323 42.3501 63.2464 42.1606 63.2464C41.971 63.2464 41.7892 63.323 41.6552 63.4594C41.5211 63.5957 41.4458 63.7807 41.4458 63.9736V68.5223H39.3558L39.353 61.7541Z" fill="#333333"/>
<path d="M1.86842 68.5455H0.71477C0.525201 68.5455 0.343407 68.6221 0.209362 68.7585C0.0753163 68.8949 0 69.0799 0 69.2727C0 69.4656 0.0753163 69.6506 0.209362 69.787C0.343407 69.9233 0.525201 70 0.71477 70H1.86842C2.05799 70 2.23978 69.9233 2.37383 69.787C2.50787 69.6506 2.58319 69.4656 2.58319 69.2727C2.58319 69.0799 2.50787 68.8949 2.37383 68.7585C2.23978 68.6221 2.05799 68.5455 1.86842 68.5455Z" fill="#FFDB2D"/>
<path d="M69.2855 68.5455H67.4413C67.2518 68.5455 67.07 68.6221 66.9359 68.7585C66.8019 68.8949 66.7266 69.0799 66.7266 69.2727C66.7266 69.4656 66.8019 69.6506 66.9359 69.787C67.07 69.9233 67.2518 70 67.4413 70H69.2855C69.475 70 69.6568 69.9233 69.7909 69.787C69.9249 69.6506 70.0002 69.4656 70.0002 69.2727C70.0002 69.0799 69.9249 68.8949 69.7909 68.7585C69.6568 68.6221 69.475 68.5455 69.2855 68.5455Z" fill="#FFDB2D"/>
<path d="M16.5729 23.9449H19.3112L17.4742 28.1627C17.412 28.3055 17.3966 28.4648 17.4303 28.6171C17.464 28.7695 17.545 28.9068 17.6613 29.0086C17.7776 29.1105 17.9231 29.1716 18.0762 29.1828C18.2293 29.194 18.3818 29.1548 18.5113 29.071L26.4217 23.9471H29.1228V25.7149C29.124 26.6178 29.4771 27.4834 30.1048 28.1217C30.7324 28.7601 31.5834 29.119 32.4708 29.1197H47.0071L54.9182 34.2451C55.0476 34.329 55.2002 34.3682 55.3533 34.3569C55.5064 34.3457 55.6518 34.2846 55.7682 34.1827C55.8845 34.0809 55.9655 33.9436 55.9992 33.7913C56.0329 33.6389 56.0175 33.4796 55.9553 33.3369L54.1184 29.119H56.8559C57.7433 29.1182 58.5941 28.7593 59.2217 28.121C59.8493 27.4826 60.2022 26.617 60.2032 25.7142V20.8506C60.2032 20.6577 60.1279 20.4728 59.9938 20.3364C59.8598 20.2 59.678 20.1234 59.4884 20.1234C59.2988 20.1234 59.117 20.2 58.983 20.3364C58.8489 20.4728 58.7736 20.6577 58.7736 20.8506V25.7142C58.7729 26.2314 58.5706 26.7271 58.2111 27.0927C57.8516 27.4584 57.3642 27.664 56.8559 27.6646H53.0197C52.9006 27.6646 52.7835 27.6948 52.6788 27.7526C52.5741 27.8104 52.4853 27.8939 52.4204 27.9955C52.3555 28.097 52.3166 28.2135 52.3071 28.3343C52.2977 28.4551 52.3181 28.5763 52.3664 28.6871L53.6895 31.7239L47.5996 27.7788C47.485 27.7043 47.3518 27.6647 47.2158 27.6646H32.4744C31.966 27.6642 31.4784 27.4586 31.1188 27.093C30.7591 26.7274 30.5567 26.2315 30.5559 25.7142V8.59055C30.5556 8.07203 30.7573 7.57453 31.1169 7.20714C31.4766 6.83974 31.9648 6.63246 32.4744 6.63073H56.8552C57.3648 6.63246 57.8528 6.83977 58.2124 7.20718C58.5719 7.5746 58.7735 8.0721 58.7729 8.59055V16.0503C58.7729 16.2432 58.8482 16.4281 58.9823 16.5645C59.1163 16.7009 59.2981 16.7775 59.4877 16.7775C59.6773 16.7775 59.8591 16.7009 59.9931 16.5645C60.1271 16.4281 60.2025 16.2432 60.2025 16.0503V8.59055C60.2027 7.68648 59.8503 6.81926 59.2228 6.17917C58.5953 5.53908 57.7438 5.17842 56.8552 5.1763H44.3053V3.4179C44.3053 2.51356 43.953 1.64607 43.3256 1.00544C42.6982 0.364817 41.8468 0.00327103 40.958 0H16.5729C15.684 0.00327103 14.8326 0.364817 14.2053 1.00544C13.5779 1.64607 13.2256 2.51356 13.2256 3.4179V10.8769C13.2256 11.0698 13.3009 11.2547 13.4349 11.3911C13.569 11.5275 13.7508 11.6041 13.9404 11.6041C14.1299 11.6041 14.3118 11.5275 14.4458 11.3911C14.5799 11.2547 14.6551 11.0698 14.6551 10.8769V3.4179C14.6538 2.89889 14.855 2.40055 15.2146 2.03239C15.5742 1.66423 16.0628 1.45635 16.5729 1.45442H40.958C41.4681 1.45635 41.9566 1.66423 42.3162 2.03239C42.6758 2.40055 42.8771 2.89889 42.8757 3.4179V5.1763H32.4744C32.134 5.18118 31.7964 5.2398 31.4737 5.35009H20.141C19.9515 5.35009 19.7696 5.42672 19.6356 5.5631C19.5015 5.69948 19.4263 5.88444 19.4263 6.07731C19.4263 6.27017 19.5015 6.45516 19.6356 6.59153C19.7696 6.72791 19.9515 6.80452 20.141 6.80452H29.6303C29.3009 7.34013 29.1251 7.95873 29.1228 8.59055V11.2485H20.0374C19.8478 11.2485 19.666 11.3251 19.532 11.4615C19.3979 11.5979 19.3226 11.7828 19.3226 11.9757C19.3226 12.1686 19.3979 12.3536 19.532 12.4899C19.666 12.6263 19.8478 12.7029 20.0374 12.7029H29.1214V17.2567C29.0151 17.189 28.8929 17.1516 28.7676 17.1484H20.141C19.9515 17.1484 19.7696 17.225 19.6356 17.3614C19.5015 17.4978 19.4263 17.6827 19.4263 17.8756C19.4263 18.0685 19.5015 18.2534 19.6356 18.3898C19.7696 18.5262 19.9515 18.6028 20.141 18.6028H28.769C28.8944 18.5994 29.0166 18.5617 29.1228 18.4937V22.4934H26.2137C26.0778 22.4935 25.9447 22.5329 25.8299 22.6068L19.74 26.5512L21.0631 23.5151C21.1105 23.4046 21.1301 23.2838 21.1203 23.1636C21.1104 23.0435 21.0713 22.9277 21.0065 22.8267C20.9417 22.7257 20.8532 22.6427 20.749 22.5852C20.6449 22.5276 20.5283 22.4973 20.4098 22.497H16.5729C16.0645 22.4963 15.5772 22.2904 15.2177 21.9247C14.8582 21.559 14.6559 21.0631 14.6551 20.5459V15.6823C14.6551 15.4895 14.5799 15.3045 14.4458 15.1681C14.3118 15.0317 14.1299 14.9551 13.9404 14.9551C13.7508 14.9551 13.569 15.0317 13.4349 15.1681C13.3009 15.3045 13.2256 15.4895 13.2256 15.6823V20.5459C13.228 21.4477 13.5817 22.3118 14.2091 22.9489C14.8365 23.586 15.6865 23.9441 16.5729 23.9449Z" fill="#FFDB2D"/>
<path d="M36.0322 11.9773H53.2881C53.4777 11.9773 53.6595 11.9006 53.7936 11.7642C53.9276 11.6279 54.0029 11.4429 54.0029 11.25C54.0029 11.0572 53.9276 10.8722 53.7936 10.7358C53.6595 10.5994 53.4777 10.5228 53.2881 10.5228H36.0322C35.8426 10.5228 35.6608 10.5994 35.5267 10.7358C35.3927 10.8722 35.3174 11.0572 35.3174 11.25C35.3174 11.4429 35.3927 11.6279 35.5267 11.7642C35.6608 11.9006 35.8426 11.9773 36.0322 11.9773Z" fill="#FFDB2D"/>
<path d="M53.3903 16.422H36.0322C35.8426 16.422 35.6608 16.4986 35.5267 16.635C35.3927 16.7714 35.3174 16.9563 35.3174 17.1492C35.3174 17.3421 35.3927 17.527 35.5267 17.6634C35.6608 17.7998 35.8426 17.8764 36.0322 17.8764H53.3903C53.5799 17.8764 53.7617 17.7998 53.8957 17.6634C54.0298 17.527 54.1051 17.3421 54.1051 17.1492C54.1051 16.9563 54.0298 16.7714 53.8957 16.635C53.7617 16.4986 53.5799 16.422 53.3903 16.422Z" fill="#FFDB2D"/>
<path d="M53.289 22.3188H44.6611C44.4715 22.3188 44.2897 22.3955 44.1557 22.5318C44.0216 22.6682 43.9463 22.8532 43.9463 23.0461C43.9463 23.2389 44.0216 23.4239 44.1557 23.5603C44.2897 23.6966 44.4715 23.7733 44.6611 23.7733H53.289C53.4786 23.7733 53.6604 23.6966 53.7945 23.5603C53.9285 23.4239 54.0038 23.2389 54.0038 23.0461C54.0038 22.8532 53.9285 22.6682 53.7945 22.5318C53.6604 22.3955 53.4786 22.3188 53.289 22.3188Z" fill="#FFDB2D"/>
<path d="M49.1542 47.3822C49.1542 47.1894 49.0788 47.0044 48.9448 46.868C48.8107 46.7316 48.6289 46.655 48.4394 46.655C48.2498 46.655 48.068 46.7316 47.9339 46.868C47.7999 47.0044 47.7246 47.1894 47.7246 47.3822V48.3531C47.7246 48.5459 47.7999 48.7309 47.9339 48.8673C48.068 49.0036 48.2498 49.0803 48.4394 49.0803C48.6289 49.0803 48.8107 49.0036 48.9448 48.8673C49.0788 48.7309 49.1542 48.5459 49.1542 48.3531V47.3822Z" fill="#333333"/>
<path d="M54.1806 49.0803C54.3702 49.0803 54.552 49.0037 54.686 48.8673C54.82 48.7309 54.8954 48.546 54.8954 48.3531V47.3852C54.8954 47.1923 54.82 47.0073 54.686 46.8709C54.552 46.7346 54.3702 46.658 54.1806 46.658C53.991 46.658 53.8092 46.7346 53.6751 46.8709C53.5411 47.0073 53.4658 47.1923 53.4658 47.3852V48.3531C53.4658 48.546 53.5411 48.7309 53.6751 48.8673C53.8092 49.0037 53.991 49.0803 54.1806 49.0803Z" fill="#333333"/>
<path d="M51.3252 52.4895C51.7015 52.4701 52.0701 52.3735 52.4088 52.2054C52.7475 52.0373 53.0492 51.8012 53.2958 51.5114C53.3669 51.4446 53.4239 51.3638 53.4634 51.2739C53.5029 51.184 53.524 51.0868 53.5255 50.9884C53.527 50.8899 53.5088 50.7922 53.4721 50.7011C53.4354 50.61 53.3808 50.5275 53.3118 50.4585C53.2427 50.3895 53.1606 50.3354 53.0705 50.2997C52.9803 50.2639 52.8839 50.2471 52.7872 50.2504C52.6905 50.2537 52.5954 50.2769 52.5077 50.3186C52.4201 50.3604 52.3417 50.4198 52.2773 50.4933C52.0393 50.7938 51.6959 50.9886 51.3195 51.0365C50.9369 50.9887 50.5871 50.7926 50.3431 50.4889C50.2772 50.4195 50.1983 50.3641 50.1111 50.3259C50.0239 50.2878 49.9301 50.2678 49.8352 50.2669C49.7403 50.2661 49.6462 50.2845 49.5584 50.3211C49.4705 50.3576 49.3907 50.4116 49.3236 50.4799C49.2565 50.5482 49.2034 50.6294 49.1675 50.7188C49.1315 50.8081 49.1135 50.9039 49.1143 51.0004C49.1151 51.097 49.1348 51.1924 49.1723 51.2811C49.2097 51.3699 49.2642 51.4501 49.3325 51.5172C49.5824 51.8068 49.8871 52.0422 50.2283 52.2095C50.5696 52.3768 50.9404 52.4725 51.3188 52.4909L51.3252 52.4895Z" fill="#333333"/>
</svg>
