<?xml version="1.0" encoding="UTF-8"?>
<svg width="485px" height="661px" viewBox="0 0 485 661" version="1.1" xmlns="http://www.w3.org/2000/svg" xmlns:xlink="http://www.w3.org/1999/xlink">
    <title>logo__overlay</title>
    <g id="Page-1" stroke="none" stroke-width="1" fill="none" fill-rule="evenodd" fill-opacity="0.5">
        <g id="logo__overlay" fill="#FFFFFF" fill-rule="nonzero">
            <path d="M452.206,235.592 C444.281,230.571 436.991,224.475 429.225,219.095 C427.323,217.84 426.689,216.585 427.006,214.074 C429.542,194.529 431.444,174.983 432.236,155.4374 C432.87,139.6575 427.481,126.9259 415.911,118.1394 C369.473,82.8139 323.194,47.4884 276.28,12.8802 C254.091,-3.4377 230.318,-3.617 208.287,12.7009 C161.215,47.3091 114.619,82.99323 68.1807,118.498 C57.0863,126.926 51.6975,139.4782 52.173,154.7201 C52.807,174.6243 54.8674,194.529 57.4033,214.253 C57.7203,217.123 57.0863,218.557 55.0259,219.992 C46.9428,225.73 38.8597,231.647 30.7767,237.385 C6.05196,255.317 -4.72544,284.725 1.93121,317.182 C31.2522,458.304 100.196,568.046 207.178,647.305 C230.159,664.34 254.408,664.34 277.548,647.484 C355.368,590.82 414.168,515.327 452.681,419.751 C453.632,417.42 455.217,415.447 455.534,412.758 C456.644,404.15 450.621,397.157 441.745,397.157 C388.017,397.157 334.288,397.157 280.559,397.157 C275.012,397.157 271.05,399.488 267.88,404.688 C261.065,416.344 253.299,427.282 245.216,437.683 C242.046,441.807 242.046,441.807 238.876,437.683 C201.948,389.984 178.174,335.113 167.555,272.711 C167.079,270.021 167.555,268.587 169.615,267.152 C192.914,249.758 216.212,232.185 239.51,214.612 C241.254,213.357 242.521,212.998 244.423,214.433 C267.722,232.185 291.178,249.758 314.635,267.152 C316.379,268.587 317.013,269.662 316.537,272.352 C313.684,289.387 309.722,305.885 304.809,322.202 C301.322,334.037 306.394,341.927 317.33,341.927 C342.213,341.927 366.937,341.927 391.821,341.927 C417.021,341.927 442.221,341.927 467.421,341.927 C474.078,341.927 478.04,338.341 479.784,331.168 C480.734,327.403 481.368,323.637 482.319,320.051 C491.353,283.291 476.614,251.372 452.206,235.592 Z M367.888,426.386 C368.681,424.772 369.473,423.517 371.534,423.517 C389.126,423.696 406.877,423.517 424.628,423.517 C424.787,425.489 423.994,426.386 423.519,427.462 C386.432,509.768 333.02,575.398 264.393,625.249 C250.129,635.649 235.072,635.828 220.967,625.428 C118.264,549.935 52.3315,445.035 24.5955,309.83 C20.4747,289.387 27.2899,271.097 42.9805,259.8 C49.1617,255.317 55.1844,251.013 61.841,246.172 C64.3769,260.338 66.7543,273.966 69.7656,287.415 C84.5053,353.762 107.011,416.523 142.038,472.65 C163.117,506.361 188.159,535.59 218.906,558.184 C234.597,569.66 249.812,569.66 265.503,558.184 C298.786,533.797 325.254,501.52 347.443,464.58 C354.734,452.387 361.707,439.655 367.888,426.386 Z M400.538,234.696 C396.417,260.697 391.187,286.518 384.53,311.981 C383.737,314.671 382.945,315.747 380.251,315.747 C364.243,315.568 348.235,315.747 331.752,315.747 C335.081,302.119 338.092,289.029 340.152,275.401 C341.896,263.566 338.726,253.703 330.009,247.068 C305.284,228.061 280.401,209.412 255.518,190.942 C247.118,184.6661 237.925,184.6661 229.525,190.763 C204.483,209.233 179.442,228.061 154.559,247.068 C146.159,253.524 142.672,263.386 144.415,274.683 C155.51,343.721 181.819,404.509 223.027,457.049 C234.121,471.215 250.446,471.215 261.54,457.228 C269.148,447.545 276.439,437.503 283.095,426.924 C284.68,424.413 286.265,423.517 288.96,423.517 C306.552,423.696 324.145,423.517 341.896,423.517 C341.896,424.055 342.054,424.593 341.896,424.951 C320.816,465.656 295.299,502.058 260.907,529.672 C257.578,532.362 253.933,534.873 250.446,537.383 C244.899,541.507 239.352,541.328 233.804,537.383 C211.457,521.603 192.28,501.699 175.638,478.746 C143.94,435.531 122.226,386.039 106.219,333.32 C96.2337,300.864 89.1016,267.511 83.7129,233.799 C83.2374,230.751 84.5053,229.854 86.2487,228.42 C116.362,206.722 146.476,184.8454 176.747,163.148 C195.608,149.5199 214.627,135.8918 233.329,122.2637 C239.669,117.6015 245.533,117.6015 251.872,122.2637 C300.371,157.4099 349.028,192.556 397.685,227.523 C400.062,229.495 401.013,231.109 400.538,234.696 Z M401.489,199.011 C355.684,166.0171 309.722,132.8434 263.918,99.849 C249.654,89.44865 235.231,89.62796 220.967,99.849 C175.163,132.8434 129.517,165.8378 83.7129,198.832 C82.4449,199.729 81.177,200.625 79.2751,202.06 C78.3242,191.66 77.3732,181.797 76.5807,172.1139 C76.1053,166.9137 76.1053,161.5342 75.6298,156.334 C74.8374,148.444 77.6902,142.8852 83.5544,138.4023 C124.287,107.739 165.019,76.89644 205.751,46.0539 C210.348,42.6468 214.944,39.0605 219.54,35.6535 C234.438,24.8944 249.812,24.5358 264.552,35.6535 C310.356,69.9031 355.843,104.5113 401.489,139.1195 C406.719,143.0645 409.096,148.2647 408.779,155.2581 C407.987,170.5 406.719,185.563 404.975,200.805 C403.232,200.984 402.439,199.729 401.489,199.011 Z M459.972,313.416 C459.497,315.03 459.021,315.747 457.436,315.747 C441.111,315.747 424.628,315.747 407.987,315.747 C413.851,292.794 418.764,269.842 422.568,246.351 C425.104,247.248 427.164,249.22 429.225,250.655 C433.821,253.883 438.417,257.11 442.855,260.517 C458.704,271.994 465.361,292.794 459.972,313.416 Z" id="Shape"></path>
        </g>
    </g>
</svg>