<svg width="64" height="69" viewBox="0 0 64 69" fill="none" xmlns="http://www.w3.org/2000/svg">
<path d="M6.07227 63.5845C5.99089 64.3332 5.72233 64.9061 5.2666 65.3032C4.81413 65.7004 4.21029 65.8989 3.45508 65.8989C2.92773 65.8989 2.46061 65.7671 2.05371 65.5034C1.65007 65.2397 1.33757 64.867 1.11621 64.3853C0.894857 63.9002 0.782552 63.3468 0.779297 62.7251V61.8022C0.779297 61.1707 0.889974 60.6108 1.11133 60.1226C1.33268 59.6343 1.65007 59.2583 2.06348 58.9946C2.48014 58.7277 2.95866 58.5942 3.49902 58.5942C4.26074 58.5942 4.86133 58.8009 5.30078 59.2144C5.74349 59.6245 6.00065 60.1925 6.07227 60.9185H5.4668C5.31706 59.7108 4.66113 59.1069 3.49902 59.1069C2.85449 59.1069 2.34017 59.3478 1.95605 59.8296C1.5752 60.3114 1.38477 60.9771 1.38477 61.8267V62.6958C1.38477 63.5161 1.57031 64.1704 1.94141 64.6587C2.31576 65.147 2.82031 65.3911 3.45508 65.3911C4.08333 65.3911 4.55697 65.2414 4.87598 64.9419C5.19499 64.6392 5.39193 64.1867 5.4668 63.5845H6.07227ZM7.07324 63.0815C7.07324 62.5737 7.1709 62.1164 7.36621 61.7095C7.56478 61.3026 7.8431 60.9868 8.20117 60.7622C8.5625 60.5343 8.97103 60.4204 9.42676 60.4204C10.1299 60.4204 10.6995 60.6678 11.1357 61.1626C11.5719 61.6541 11.79 62.3068 11.79 63.1206V63.2427C11.79 63.7537 11.6908 64.2144 11.4922 64.6245C11.2969 65.0314 11.0202 65.3455 10.6621 65.5669C10.304 65.7882 9.89551 65.8989 9.43652 65.8989C8.73665 65.8989 8.16699 65.6532 7.72754 65.1616C7.29134 64.6668 7.07324 64.0125 7.07324 63.1987V63.0815ZM7.65918 63.2427C7.65918 63.8742 7.82194 64.3934 8.14746 64.8003C8.47624 65.2039 8.90592 65.4058 9.43652 65.4058C9.96387 65.4058 10.3903 65.2039 10.7158 64.8003C11.0446 64.3934 11.209 63.8579 11.209 63.1938V63.0815C11.209 62.6779 11.1341 62.3084 10.9844 61.9731C10.8346 61.6379 10.6247 61.3791 10.3545 61.1968C10.0843 61.0112 9.77507 60.9185 9.42676 60.9185C8.90592 60.9185 8.48112 61.1235 8.15234 61.5337C7.82357 61.9406 7.65918 62.4744 7.65918 63.1353V63.2427ZM12.6787 63.0815C12.6787 62.5737 12.7764 62.1164 12.9717 61.7095C13.1702 61.3026 13.4486 60.9868 13.8066 60.7622C14.168 60.5343 14.5765 60.4204 15.0322 60.4204C15.7354 60.4204 16.305 60.6678 16.7412 61.1626C17.1774 61.6541 17.3955 62.3068 17.3955 63.1206V63.2427C17.3955 63.7537 17.2962 64.2144 17.0977 64.6245C16.9023 65.0314 16.6257 65.3455 16.2676 65.5669C15.9095 65.7882 15.501 65.8989 15.042 65.8989C14.3421 65.8989 13.7725 65.6532 13.333 65.1616C12.8968 64.6668 12.6787 64.0125 12.6787 63.1987V63.0815ZM13.2646 63.2427C13.2646 63.8742 13.4274 64.3934 13.7529 64.8003C14.0817 65.2039 14.5114 65.4058 15.042 65.4058C15.5693 65.4058 15.9958 65.2039 16.3213 64.8003C16.6501 64.3934 16.8145 63.8579 16.8145 63.1938V63.0815C16.8145 62.6779 16.7396 62.3084 16.5898 61.9731C16.4401 61.6379 16.2301 61.3791 15.96 61.1968C15.6898 61.0112 15.3805 60.9185 15.0322 60.9185C14.5114 60.9185 14.0866 61.1235 13.7578 61.5337C13.429 61.9406 13.2646 62.4744 13.2646 63.1353V63.2427ZM22.293 61.0161H20.3691V65.8013H19.7832V61.0161H17.9326V60.5181H22.293V61.0161ZM23.3184 65.8013V60.5181H25.2568C25.9274 60.5181 26.4417 60.6385 26.7998 60.8794C27.1579 61.117 27.3369 61.467 27.3369 61.9292C27.3369 62.1929 27.2572 62.4289 27.0977 62.6372C26.9382 62.8423 26.7054 62.992 26.3994 63.0864C26.7445 63.1515 27.0212 63.2996 27.2295 63.5308C27.4411 63.7619 27.5469 64.0304 27.5469 64.3364C27.5469 64.8019 27.3743 65.1632 27.0293 65.4204C26.6875 65.6743 26.2025 65.8013 25.5742 65.8013H23.3184ZM23.8994 63.3696V65.313H25.5938C26.0332 65.313 26.3717 65.2284 26.6094 65.0591C26.847 64.8898 26.9658 64.6457 26.9658 64.3267C26.9658 64.0337 26.847 63.8009 26.6094 63.6284C26.3717 63.4559 26.0332 63.3696 25.5938 63.3696H23.8994ZM23.8994 62.8813H25.3789C26.2969 62.8683 26.7559 62.5558 26.7559 61.9438C26.7559 61.6216 26.6289 61.3872 26.375 61.2407C26.1243 61.091 25.7516 61.0161 25.2568 61.0161H23.8994V62.8813ZM30.8965 65.8989C30.4473 65.8989 30.0404 65.7882 29.6758 65.5669C29.3145 65.3455 29.0329 65.0379 28.8311 64.644C28.6292 64.2469 28.5283 63.8026 28.5283 63.311V63.1011C28.5283 62.5933 28.626 62.1359 28.8213 61.729C29.0199 61.3221 29.2949 61.0031 29.6465 60.772C29.998 60.5376 30.3789 60.4204 30.7891 60.4204C31.4303 60.4204 31.9382 60.6401 32.3125 61.0796C32.6901 61.5158 32.8789 62.1131 32.8789 62.8716V63.1987H29.1094V63.311C29.1094 63.91 29.2803 64.4097 29.6221 64.8101C29.9671 65.2072 30.4001 65.4058 30.9209 65.4058C31.2334 65.4058 31.5085 65.3488 31.7461 65.2349C31.987 65.1209 32.2051 64.9386 32.4004 64.688L32.7666 64.9663C32.3369 65.5881 31.7135 65.8989 30.8965 65.8989ZM30.7891 60.9185C30.3496 60.9185 29.9785 61.0796 29.6758 61.4019C29.3763 61.7241 29.194 62.1571 29.1289 62.7007H32.2979V62.6372C32.2816 62.1294 32.1367 61.716 31.8633 61.397C31.5898 61.078 31.2318 60.9185 30.7891 60.9185ZM37.752 61.0161H35.8281V65.8013H35.2422V61.0161H33.3916V60.5181H37.752V61.0161ZM40.2764 65.4058C40.6833 65.4058 41.0234 65.2918 41.2969 65.064C41.5736 64.8328 41.7233 64.535 41.7461 64.1704H42.3076C42.2913 64.4927 42.1904 64.7873 42.0049 65.0542C41.8193 65.3179 41.5719 65.5246 41.2627 65.6743C40.9567 65.8241 40.6279 65.8989 40.2764 65.8989C39.583 65.8989 39.0329 65.658 38.626 65.1763C38.2223 64.6945 38.0205 64.0467 38.0205 63.2329V63.0571C38.0205 62.5363 38.1117 62.0757 38.2939 61.6753C38.4762 61.2749 38.7367 60.9657 39.0752 60.7476C39.417 60.5295 39.8158 60.4204 40.2715 60.4204C40.8509 60.4204 41.3278 60.5929 41.7021 60.938C42.0798 61.283 42.2816 61.7371 42.3076 62.3003H41.7461C41.7201 61.8869 41.5703 61.5532 41.2969 61.2993C41.0267 61.0454 40.6849 60.9185 40.2715 60.9185C39.7441 60.9185 39.334 61.1089 39.041 61.4897C38.7513 61.8706 38.6064 62.4045 38.6064 63.0913V63.2622C38.6064 63.936 38.7513 64.4618 39.041 64.8394C39.334 65.217 39.7458 65.4058 40.2764 65.4058ZM47.2734 61.0161H45.3496V65.8013H44.7637V61.0161H42.9131V60.5181H47.2734V61.0161ZM48.2988 65.8013V60.5181H50.2373C50.9079 60.5181 51.4222 60.6385 51.7803 60.8794C52.1383 61.117 52.3174 61.467 52.3174 61.9292C52.3174 62.1929 52.2376 62.4289 52.0781 62.6372C51.9186 62.8423 51.6859 62.992 51.3799 63.0864C51.7249 63.1515 52.0016 63.2996 52.21 63.5308C52.4215 63.7619 52.5273 64.0304 52.5273 64.3364C52.5273 64.8019 52.3548 65.1632 52.0098 65.4204C51.668 65.6743 51.1829 65.8013 50.5547 65.8013H48.2988ZM48.8799 63.3696V65.313H50.5742C51.0137 65.313 51.3522 65.2284 51.5898 65.0591C51.8275 64.8898 51.9463 64.6457 51.9463 64.3267C51.9463 64.0337 51.8275 63.8009 51.5898 63.6284C51.3522 63.4559 51.0137 63.3696 50.5742 63.3696H48.8799ZM48.8799 62.8813H50.3594C51.2773 62.8683 51.7363 62.5558 51.7363 61.9438C51.7363 61.6216 51.6094 61.3872 51.3555 61.2407C51.1048 61.091 50.7321 61.0161 50.2373 61.0161H48.8799V62.8813ZM57.3027 60.5181H57.8887V65.8013H57.3027V61.4604L54.4512 65.8013H53.8701V60.5181H54.4512V64.8638L57.3027 60.5181ZM61.502 65.8989C61.0527 65.8989 60.6458 65.7882 60.2812 65.5669C59.9199 65.3455 59.6383 65.0379 59.4365 64.644C59.2347 64.2469 59.1338 63.8026 59.1338 63.311V63.1011C59.1338 62.5933 59.2314 62.1359 59.4268 61.729C59.6253 61.3221 59.9004 61.0031 60.252 60.772C60.6035 60.5376 60.9844 60.4204 61.3945 60.4204C62.0358 60.4204 62.5436 60.6401 62.918 61.0796C63.2956 61.5158 63.4844 62.1131 63.4844 62.8716V63.1987H59.7148V63.311C59.7148 63.91 59.8857 64.4097 60.2275 64.8101C60.5726 65.2072 61.0055 65.4058 61.5264 65.4058C61.8389 65.4058 62.1139 65.3488 62.3516 65.2349C62.5924 65.1209 62.8105 64.9386 63.0059 64.688L63.3721 64.9663C62.9424 65.5881 62.319 65.8989 61.502 65.8989ZM61.3945 60.9185C60.9551 60.9185 60.584 61.0796 60.2812 61.4019C59.9818 61.7241 59.7995 62.1571 59.7344 62.7007H62.9033V62.6372C62.887 62.1294 62.7422 61.716 62.4688 61.397C62.1953 61.078 61.8372 60.9185 61.3945 60.9185Z" fill="#333333"/>
<path d="M50.9588 18.8165C50.2411 18.4145 49.5807 17.9264 48.8773 17.4958C48.705 17.3953 48.6476 17.2948 48.6763 17.0938C48.906 15.5291 49.0783 13.9643 49.1501 12.3996C49.2075 11.1363 48.7194 10.1171 47.6714 9.41363C43.4653 6.5856 39.2735 3.75758 35.0243 0.986968C33.0145 -0.319381 30.8612 -0.333735 28.8658 0.972614C24.6022 3.74322 20.3817 6.59996 16.1755 9.44235C15.1706 10.1171 14.6825 11.1219 14.7256 12.3422C14.783 13.9356 14.9697 15.5291 15.1993 17.1082C15.228 17.3379 15.1706 17.4527 14.984 17.5676C14.2519 18.0269 13.5197 18.5007 12.7876 18.96C10.5482 20.3956 9.57199 22.7499 10.1749 25.3482C12.8307 36.646 19.0753 45.4315 28.7653 51.7767C30.8468 53.1404 33.0432 53.1404 35.1391 51.791C42.1876 47.2547 47.5135 41.211 51.0019 33.5596C51.088 33.3729 51.2316 33.215 51.2603 32.9997C51.3608 32.3106 50.8153 31.7508 50.0114 31.7508C45.1449 31.7508 40.2784 31.7508 35.4119 31.7508C34.9094 31.7508 34.5505 31.9374 34.2634 32.3537C33.6461 33.2868 32.9427 34.1625 32.2106 34.9951C31.9235 35.3253 31.9235 35.3253 31.6364 34.9951C28.2915 31.1765 26.1382 26.7838 25.1764 21.7881C25.1333 21.5727 25.1764 21.4579 25.363 21.343C27.4733 19.9506 29.5835 18.5437 31.6938 17.1369C31.8517 17.0364 31.9665 17.0077 32.1388 17.1225C34.2491 18.5437 36.3737 19.9506 38.4983 21.343C38.6562 21.4579 38.7136 21.544 38.6705 21.7593C38.4122 23.1231 38.0533 24.4438 37.6082 25.7502C37.2924 26.6976 37.7518 27.3293 38.7423 27.3293C40.9961 27.3293 43.2356 27.3293 45.4894 27.3293C47.7719 27.3293 50.0545 27.3293 52.337 27.3293C52.9399 27.3293 53.2988 27.0422 53.4567 26.4679C53.5428 26.1665 53.6003 25.865 53.6864 25.5779C54.5046 22.635 53.1696 20.0798 50.9588 18.8165ZM43.3217 34.0907C43.3935 33.9615 43.4653 33.861 43.6519 33.861C45.2454 33.8754 46.8532 33.861 48.461 33.861C48.4753 34.0189 48.4036 34.0907 48.3605 34.1768C45.0013 40.766 40.1635 46.0201 33.9476 50.0109C32.6556 50.8436 31.2918 50.8579 30.0142 50.0253C20.7118 43.9816 14.74 35.5837 12.2278 24.7596C11.8545 23.1231 12.4718 21.6589 13.893 20.7545C14.4529 20.3956 14.9984 20.051 15.6013 19.6634C15.831 20.7975 16.0463 21.8885 16.3191 22.9652C17.6541 28.2767 19.6926 33.3012 22.8652 37.7944C24.7744 40.4933 27.0426 42.8332 29.8276 44.642C31.2488 45.5607 32.6269 45.5607 34.0481 44.642C37.0627 42.6896 39.4601 40.1057 41.4699 37.1484C42.1302 36.1723 42.7619 35.153 43.3217 34.0907ZM46.279 18.7447C45.9057 20.8262 45.432 22.8934 44.829 24.9319C44.7573 25.1472 44.6855 25.2334 44.4415 25.2334C42.9916 25.219 41.5416 25.2334 40.0487 25.2334C40.3501 24.1424 40.6229 23.0944 40.8095 22.0034C40.9674 21.0559 40.6803 20.2664 39.8908 19.7352C37.6513 18.2135 35.3975 16.7206 33.1437 15.242C32.3828 14.7395 31.5502 14.7395 30.7894 15.2276C28.5212 16.7062 26.2531 18.2135 23.9992 19.7352C23.2384 20.252 22.9226 21.0416 23.0805 21.946C24.0854 27.4728 26.4684 32.3393 30.2008 36.5455C31.2057 37.6796 32.6843 37.6796 33.6892 36.5598C34.3783 35.7847 35.0386 34.9807 35.6415 34.1338C35.7851 33.9328 35.9286 33.861 36.1727 33.861C37.7661 33.8754 39.3596 33.861 40.9674 33.861C40.9674 33.9041 40.9818 33.9472 40.9674 33.9759C39.0581 37.2346 36.7469 40.1487 33.6318 42.3595C33.3303 42.5748 33.0001 42.7758 32.6843 42.9767C32.1819 43.3069 31.6794 43.2926 31.177 42.9767C29.1529 41.7135 27.4158 40.12 25.9085 38.2825C23.0374 34.8228 21.0707 30.8607 19.6208 26.6402C18.7164 24.0419 18.0704 21.3717 17.5823 18.6729C17.5393 18.4289 17.6541 18.3571 17.812 18.2423C20.5396 16.5052 23.2671 14.7539 26.009 13.0169C27.7173 11.9258 29.44 10.8348 31.1339 9.74381C31.7081 9.37057 32.2393 9.37057 32.8135 9.74381C37.2063 12.5575 41.6134 15.3712 46.0206 18.1705C46.2359 18.3284 46.322 18.4576 46.279 18.7447ZM46.3651 15.888C42.2163 13.2465 38.0533 10.5908 33.9045 7.94938C32.6125 7.11676 31.3062 7.13111 30.0142 7.94938C25.8655 10.5908 21.7311 13.2322 17.5823 15.8736C17.4675 15.9454 17.3527 16.0172 17.1804 16.132C17.0943 15.2994 17.0081 14.5098 16.9363 13.7346C16.8933 13.3183 16.8933 12.8877 16.8502 12.4714C16.7784 11.8397 17.0368 11.3947 17.568 11.0358C21.2574 8.58102 24.9467 6.11187 28.6361 3.64273C29.0524 3.36998 29.4687 3.08287 29.885 2.81011C31.2344 1.94879 32.6269 1.92007 33.9619 2.81011C38.1107 5.55201 42.2307 8.32262 46.3651 11.0932C46.8388 11.409 47.0542 11.8254 47.0254 12.3852C46.9537 13.6054 46.8388 14.8113 46.6809 16.0315C46.523 16.0459 46.4512 15.9454 46.3651 15.888ZM51.6623 25.0468C51.6192 25.176 51.5761 25.2334 51.4326 25.2334C49.954 25.2334 48.461 25.2334 46.9537 25.2334C47.4848 23.3959 47.9298 21.5584 48.2744 19.6778C48.5041 19.7496 48.6907 19.9075 48.8773 20.0223C49.2936 20.2807 49.7099 20.5391 50.1119 20.8119C51.5474 21.7306 52.1503 23.3959 51.6623 25.0468Z" fill="#333333"/>
</svg>
