<svg width="70" height="70" viewBox="0 0 70 70" fill="none" xmlns="http://www.w3.org/2000/svg">
<path d="M10.0732 20.5374H46.4338C46.6234 20.5374 46.8052 20.4621 46.9392 20.328C47.0733 20.194 47.1486 20.0122 47.1486 19.8226C47.1486 19.633 47.0733 19.4512 46.9392 19.3171C46.8052 19.1831 46.6234 19.1078 46.4338 19.1078H10.0732C9.88361 19.1078 9.7018 19.1831 9.56775 19.3171C9.43371 19.4512 9.3584 19.633 9.3584 19.8226C9.3584 20.0122 9.43371 20.194 9.56775 20.328C9.7018 20.4621 9.88361 20.5374 10.0732 20.5374Z" fill="#333333"/>
<path d="M10.0732 26.0176H46.4338C46.6234 26.0176 46.8052 25.9423 46.9392 25.8082C47.0733 25.6742 47.1486 25.4924 47.1486 25.3028C47.1486 25.1132 47.0733 24.9314 46.9392 24.7974C46.8052 24.6633 46.6234 24.588 46.4338 24.588H10.0732C9.88361 24.588 9.7018 24.6633 9.56775 24.7974C9.43371 24.9314 9.3584 25.1132 9.3584 25.3028C9.3584 25.4924 9.43371 25.6742 9.56775 25.8082C9.7018 25.9423 9.88361 26.0176 10.0732 26.0176Z" fill="#333333"/>
<path d="M10.0732 31.4972H46.4338C46.6234 31.4972 46.8052 31.4219 46.9392 31.2878C47.0733 31.1538 47.1486 30.972 47.1486 30.7824C47.1486 30.5928 47.0733 30.411 46.9392 30.277C46.8052 30.1429 46.6234 30.0676 46.4338 30.0676H10.0732C9.88361 30.0676 9.7018 30.1429 9.56775 30.277C9.43371 30.411 9.3584 30.5928 9.3584 30.7824C9.3584 30.972 9.43371 31.1538 9.56775 31.2878C9.7018 31.4219 9.88361 31.4972 10.0732 31.4972Z" fill="#333333"/>
<path d="M10.0732 36.9767H28.2539C28.4434 36.9767 28.6252 36.9014 28.7593 36.7673C28.8933 36.6333 28.9686 36.4515 28.9686 36.2619C28.9686 36.0723 28.8933 35.8905 28.7593 35.7565C28.6252 35.6224 28.4434 35.5471 28.2539 35.5471H10.0732C9.88361 35.5471 9.7018 35.6224 9.56775 35.7565C9.43371 35.8905 9.3584 36.0723 9.3584 36.2619C9.3584 36.4515 9.43371 36.6333 9.56775 36.7673C9.7018 36.9014 9.88361 36.9767 10.0732 36.9767Z" fill="#333333"/>
<path d="M64.6385 68.01H64.0167C64.2401 67.6102 64.3582 67.16 64.3598 66.702V60.8764C64.3598 60.6869 64.2845 60.5051 64.1504 60.371C64.0164 60.237 63.8346 60.1617 63.645 60.1617C63.4554 60.1617 63.2736 60.237 63.1396 60.371C63.0055 60.5051 62.9302 60.6869 62.9302 60.8764V66.702C62.93 67.0489 62.7921 67.3815 62.5469 67.6267C62.3016 67.872 61.969 68.0099 61.6221 68.01H46.4615C46.1146 68.0099 45.782 67.872 45.5367 67.6267C45.2915 67.3815 45.1536 67.0489 45.1534 66.702V55.0509C45.1536 54.7041 45.2915 54.3715 45.5367 54.1262C45.782 53.8809 46.1146 53.743 46.4615 53.7429H61.6221C61.969 53.743 62.3016 53.8809 62.5469 54.1262C62.7921 54.3715 62.93 54.7041 62.9302 55.0509V58.4533C62.9302 58.6429 63.0055 58.8247 63.1396 58.9587C63.2736 59.0928 63.4554 59.1681 63.645 59.1681C63.8346 59.1681 64.0164 59.0928 64.1504 58.9587C64.2845 58.8247 64.3598 58.6429 64.3598 58.4533V55.0509C64.3585 54.3253 64.0696 53.6297 63.5565 53.1166C63.0434 52.6035 62.3478 52.3146 61.6221 52.3133H61.086V48.7751C61.0859 47.7318 60.8538 46.7016 60.4066 45.759C59.9595 44.8164 59.3084 43.985 58.5005 43.3249C57.6927 42.6647 56.7482 42.1924 55.7354 41.9421C54.7226 41.6917 53.6668 41.6696 52.6444 41.8774V14.5874C52.6364 14.3993 52.5631 14.2199 52.4371 14.0799L40.5645 2.21444C40.4271 2.08353 40.2466 2.00729 40.057 2H7.53406C6.56178 2.00076 5.62954 2.38733 4.94203 3.07484C4.25453 3.76234 3.86794 4.69458 3.86719 5.66687V53.2146C3.86719 53.4042 3.94249 53.586 4.07654 53.7201C4.21059 53.8541 4.3924 53.9294 4.58198 53.9294C4.77155 53.9294 4.95336 53.8541 5.08741 53.7201C5.22146 53.586 5.29677 53.4042 5.29677 53.2146V5.66615C5.29771 5.07308 5.53374 4.50456 5.9531 4.08519C6.37247 3.66582 6.94098 3.42981 7.53406 3.42886H39.335V11.6346C39.335 11.6561 39.3422 11.6704 39.3422 11.6918C39.3555 12.6537 39.7469 13.5716 40.4318 14.2471C41.1167 14.9227 42.0399 15.3014 43.0019 15.3015H51.2155V42.3348C49.9655 42.8854 48.9023 43.787 48.1549 44.9303C47.4075 46.0735 47.0082 47.4092 47.0054 48.7751V52.3133H46.4622C45.7365 52.3146 45.041 52.6035 44.5278 53.1166C44.0147 53.6297 43.7259 54.3253 43.7245 55.0509V66.702C43.7296 67.1573 43.8475 67.6043 44.0676 68.0029H6.9415C6.72481 68.0029 6.51026 67.96 6.31027 67.8765C6.11028 67.7931 5.92882 67.6709 5.77639 67.5168C5.62241 67.3662 5.50058 67.186 5.41827 66.9869C5.33595 66.7879 5.29486 66.5743 5.29749 66.3589V57.3668C5.29749 57.1773 5.22218 56.9955 5.08813 56.8614C4.95408 56.7274 4.77227 56.6521 4.5827 56.6521C4.39312 56.6521 4.21131 56.7274 4.07726 56.8614C3.94321 56.9955 3.86791 57.1773 3.86791 57.3668V66.3589C3.87028 67.0036 4.07532 67.6312 4.45403 68.153C4.35861 68.2151 4.27999 68.2998 4.22513 68.3995C4.17027 68.4993 4.14087 68.611 4.13953 68.7248C4.13953 68.9144 4.21484 69.0962 4.34889 69.2303C4.48294 69.3643 4.66475 69.4396 4.85432 69.4396H64.6393C64.8288 69.4396 65.0106 69.3643 65.1447 69.2303C65.2787 69.0962 65.3541 68.9144 65.3541 68.7248C65.3541 68.5353 65.2787 68.3535 65.1447 68.2194C65.0106 68.0854 64.8288 68.01 64.6393 68.01H64.6385ZM52.6444 43.3498C53.4729 43.1343 54.3399 43.1115 55.1786 43.2833C56.0173 43.4551 56.8055 43.8168 57.4826 44.3407C58.1597 44.8646 58.7077 45.5367 59.0846 46.3054C59.4614 47.0741 59.6571 47.919 59.6565 48.7751V52.3133H52.6451L52.6444 43.3498ZM43.0019 13.8726C42.4095 13.8715 41.8419 13.6352 41.4237 13.2157C41.0055 12.7961 40.771 12.2277 40.7718 11.6354V4.44386L50.1998 13.8719L43.0019 13.8726ZM48.4343 48.7758C48.4366 47.797 48.6944 46.8357 49.182 45.987C49.6697 45.1384 50.3704 44.4316 51.2148 43.9367V52.314H48.4343V48.7758Z" fill="#333333"/>
<path d="M1.86918 68.0107H0.714789C0.525215 68.0107 0.343405 68.086 0.209356 68.2201C0.0753074 68.3541 0 68.536 0 68.7255C0 68.9151 0.0753074 69.0969 0.209356 69.231C0.343405 69.365 0.525215 69.4403 0.714789 69.4403H1.86918C2.05875 69.4403 2.24056 69.365 2.37461 69.231C2.50866 69.0969 2.58397 68.9151 2.58397 68.7255C2.58397 68.536 2.50866 68.3541 2.37461 68.2201C2.24056 68.086 2.05875 68.0107 1.86918 68.0107Z" fill="#FFDB2D"/>
<path d="M69.2869 68.0107H67.4414C67.2518 68.0107 67.07 68.086 66.9359 68.2201C66.8019 68.3541 66.7266 68.536 66.7266 68.7255C66.7266 68.9151 66.8019 69.0969 66.9359 69.231C67.07 69.365 67.2518 69.4403 67.4414 69.4403H69.2848C69.4744 69.4403 69.6562 69.365 69.7902 69.231C69.9243 69.0969 69.9996 68.9151 69.9996 68.7255C69.9996 68.536 69.9243 68.3541 69.7902 68.2201C69.6562 68.086 69.4744 68.0107 69.2848 68.0107H69.2869Z" fill="#FFDB2D"/>
<path d="M54.0456 56.6521C53.4284 56.6506 52.8314 56.8723 52.3647 57.2762C51.8981 57.6801 51.5931 58.2391 51.506 58.8502C51.419 59.4612 51.5557 60.0831 51.8911 60.6013C52.2264 61.1195 52.7377 61.499 53.3308 61.6699V63.9001C53.3308 64.0896 53.4061 64.2715 53.5402 64.4055C53.6742 64.5395 53.856 64.6149 54.0456 64.6149C54.2352 64.6149 54.417 64.5395 54.5511 64.4055C54.6851 64.2715 54.7604 64.0896 54.7604 63.9001V61.6699C55.3535 61.499 55.8648 61.1195 56.2001 60.6013C56.5355 60.0831 56.6722 59.4612 56.5852 58.8502C56.4982 58.2391 56.1932 57.6801 55.7265 57.2762C55.2598 56.8723 54.6628 56.6506 54.0456 56.6521ZM54.0456 60.3547C53.8208 60.3547 53.6011 60.2881 53.4142 60.1632C53.2273 60.0383 53.0816 59.8608 52.9956 59.6531C52.9096 59.4454 52.8871 59.2169 52.9309 58.9965C52.9748 58.776 53.083 58.5735 53.242 58.4146C53.4009 58.2556 53.6034 58.1474 53.8239 58.1035C54.0444 58.0597 54.2729 58.0822 54.4806 58.1682C54.6882 58.2542 54.8657 58.3999 54.9906 58.5868C55.1155 58.7737 55.1821 58.9934 55.1821 59.2182C55.1823 59.3675 55.1531 59.5154 55.096 59.6533C55.039 59.7913 54.9553 59.9167 54.8497 60.0222C54.7441 60.1278 54.6187 60.2115 54.4808 60.2686C54.3428 60.3256 54.1949 60.3549 54.0456 60.3547Z" fill="#FFDB2D"/>
<path d="M34.9424 44.1082H32.1069L21.5645 62.321H24.3764L34.9424 44.1082Z" fill="#FFDB2D"/>
<path d="M38.7276 53.7142C38.5699 53.3768 38.368 53.0619 38.1272 52.7779C37.6823 52.3316 37.1537 51.9775 36.5716 51.7359C35.9896 51.4942 35.3657 51.3699 34.7355 51.3699C34.1053 51.3699 33.4814 51.4942 32.8993 51.7359C32.3173 51.9775 31.7887 52.3316 31.3438 52.7779C30.4634 53.9652 30.0351 55.4275 30.1358 56.9022C30.0303 58.3951 30.4584 59.877 31.3438 61.0837C31.7864 61.5341 32.3142 61.8919 32.8965 62.1361C33.4789 62.3804 34.104 62.5061 34.7355 62.5061C35.367 62.5061 35.9921 62.3804 36.5744 62.1361C37.1568 61.8919 37.6846 61.5341 38.1272 61.0837C38.2646 60.9266 38.3867 60.7566 38.4917 60.5762C39.1093 59.4614 39.4038 58.1965 39.3423 56.9236C39.379 55.8214 39.169 54.7249 38.7276 53.7142ZM36.1687 59.5969C36.0261 59.8507 35.8185 60.062 35.5673 60.209C35.316 60.356 35.0302 60.4335 34.7391 60.4335C34.448 60.4335 34.1621 60.356 33.9109 60.209C33.6596 60.062 33.4521 59.8507 33.3095 59.5969C32.9443 58.7554 32.785 57.839 32.8449 56.9236C32.7867 56.0176 32.946 55.1108 33.3095 54.2789C33.4423 54.0174 33.648 53.8 33.9017 53.6529C34.1553 53.5058 34.4462 53.4352 34.7391 53.4497C35.0301 53.4406 35.3178 53.5135 35.5693 53.6601C35.8209 53.8068 36.0261 54.0212 36.1615 54.2789C36.528 55.1101 36.6898 56.017 36.6333 56.9236C36.6931 57.839 36.5339 58.7554 36.1687 59.5969Z" fill="#FFDB2D"/>
<path d="M25.1463 45.2726C24.7224 44.7957 24.1962 44.4207 23.6071 44.1756C23.0179 43.9306 22.381 43.8217 21.7439 43.8573C21.1122 43.8225 20.4808 43.9318 19.8975 44.177C19.3143 44.4222 18.7944 44.7968 18.3773 45.2726C17.5838 46.5097 17.1621 47.9486 17.1621 49.4183C17.1621 50.8881 17.5838 52.3269 18.3773 53.5641C18.7954 54.0386 19.3155 54.4123 19.8985 54.6574C20.4815 54.9025 21.1124 55.0126 21.7439 54.9794C22.3808 55.0133 23.0172 54.9037 23.6061 54.6587C24.195 54.4138 24.7213 54.0397 25.1463 53.5641C25.9487 52.3303 26.3757 50.8901 26.3757 49.4183C26.3757 47.9466 25.9487 46.5064 25.1463 45.2726ZM23.2021 52.0917C23.0617 52.3521 22.85 52.5671 22.5917 52.7114C22.3334 52.8558 22.0393 52.9234 21.7439 52.9065C21.4541 52.9196 21.1667 52.8483 20.9167 52.7011C20.6667 52.5539 20.4649 52.3372 20.3358 52.0774C19.7258 50.3547 19.7258 48.4748 20.3358 46.7522C20.4661 46.4934 20.6682 46.2775 20.9179 46.1305C21.1676 45.9835 21.4544 45.9114 21.7439 45.923C22.0384 45.9101 22.3306 45.9812 22.5862 46.128C22.8419 46.2748 23.0505 46.4913 23.1878 46.7522C23.5591 47.5845 23.7234 48.4944 23.6667 49.404C23.7278 50.3241 23.5685 51.2455 23.2021 52.0917Z" fill="#FFDB2D"/>
</svg>
