<svg width="70" height="64" viewBox="0 0 70 64" fill="none" xmlns="http://www.w3.org/2000/svg">
<path d="M64.6387 62.6603H63.5451L67.5028 56.4527C67.5629 56.3472 67.5971 56.2305 67.6029 56.1111V56.1077L67.5472 27.39C67.5462 26.8374 67.3113 26.3077 66.894 25.9172C66.4766 25.5267 65.911 25.3074 65.3213 25.3074H65.317L59.5201 25.3175C59.2277 25.3179 58.9382 25.3723 58.6682 25.4777C58.3983 25.583 58.1531 25.7371 57.9467 25.9313C57.7403 26.1254 57.5768 26.3558 57.4655 26.6092C57.3541 26.8626 57.2971 27.1341 57.2978 27.4081C57.325 40.8864 57.3571 56.2122 57.3564 56.1292C57.3636 56.2484 57.3985 56.3648 57.4586 56.4701L61.4386 62.6603H55.9183C56.1238 62.3044 56.233 61.9068 56.2363 61.5021V56.4112C56.2363 56.2335 56.161 56.0631 56.027 55.9375C55.8929 55.8119 55.7111 55.7413 55.5216 55.7413C55.332 55.7413 55.1502 55.8119 55.0161 55.9375C54.8821 56.0631 54.8068 56.2335 54.8068 56.4112V61.5021C54.8062 61.8092 54.6757 62.1036 54.4439 62.3207C54.2121 62.5378 53.8979 62.66 53.5702 62.6603H7.22467C6.89702 62.66 6.58289 62.5378 6.3512 62.3207C6.11951 62.1036 5.98919 61.8092 5.98881 61.5021V16.496C5.98881 16.3184 5.9135 16.148 5.77946 16.0224C5.64541 15.8968 5.4636 15.8262 5.27402 15.8262C5.08445 15.8262 4.90264 15.8968 4.76859 16.0224C4.63454 16.148 4.55923 16.3184 4.55923 16.496V61.5021C4.56224 61.9068 4.67147 62.3046 4.87731 62.6603H4.85444C4.66486 62.6603 4.48305 62.7309 4.349 62.8565C4.21496 62.9821 4.13965 63.1525 4.13965 63.3302C4.13965 63.5078 4.21496 63.6782 4.349 63.8038C4.48305 63.9295 4.66486 64 4.85444 64H64.6387C64.8283 64 65.0101 63.9295 65.1441 63.8038C65.2782 63.6782 65.3535 63.5078 65.3535 63.3302C65.3535 63.1525 65.2782 62.9821 65.1441 62.8565C65.0101 62.7309 64.8283 62.6603 64.6387 62.6603ZM58.7867 55.4533L58.7402 31.9511L66.129 31.9377L66.1748 55.4405L58.7867 55.4533ZM58.9618 26.8776C59.0356 26.8079 59.1233 26.7525 59.22 26.7147C59.3167 26.6769 59.4203 26.6573 59.5251 26.6572L65.3227 26.6471C65.5337 26.6473 65.7361 26.7259 65.8853 26.8657C66.0346 27.0054 66.1186 27.195 66.119 27.3927L66.1254 30.5967L58.7352 30.6101L58.7288 27.4048C58.728 27.3069 58.748 27.2099 58.7877 27.1194C58.8273 27.0289 58.8858 26.9467 58.9597 26.8776H58.9618ZM65.6294 56.7809L62.4943 61.7011L59.3385 56.7923L65.6294 56.7809Z" fill="#333333"/>
<path d="M1.86847 62.6603H0.714793C0.525218 62.6603 0.343407 62.7308 0.209357 62.8564C0.0753078 62.982 0 63.1523 0 63.3299C0 63.5074 0.0753078 63.6777 0.209357 63.8033C0.343407 63.9289 0.525218 63.9994 0.714793 63.9994H1.86847C2.05804 63.9994 2.23985 63.9289 2.3739 63.8033C2.50795 63.6777 2.58326 63.5074 2.58326 63.3299C2.58326 63.1523 2.50795 62.982 2.3739 62.8564C2.23985 62.7308 2.05804 62.6603 1.86847 62.6603Z" fill="#FFDB2D"/>
<path d="M69.2855 62.6603H67.4413C67.2518 62.6603 67.07 62.7308 66.9359 62.8564C66.8019 62.982 66.7266 63.1523 66.7266 63.3299C66.7266 63.5074 66.8019 63.6777 66.9359 63.8033C67.07 63.9289 67.2518 63.9994 67.4413 63.9994H69.2855C69.4751 63.9994 69.6569 63.9289 69.7909 63.8033C69.925 63.6777 70.0003 63.5074 70.0003 63.3299C70.0003 63.1523 69.925 62.982 69.7909 62.8564C69.6569 62.7308 69.4751 62.6603 69.2855 62.6603Z" fill="#FFDB2D"/>
<path d="M5.27631 14.4282C5.46589 14.4282 5.6477 14.3576 5.78175 14.232C5.91579 14.1063 5.9911 13.936 5.9911 13.7583V10.3353C5.99242 10.0283 6.12313 9.73431 6.35475 9.51725C6.58637 9.30018 6.90013 9.17766 7.22768 9.17643H19.2647C18.5972 9.77907 17.9851 10.4334 17.4349 11.1325H9.40779C9.21822 11.1325 9.03641 11.203 8.90236 11.3286C8.76831 11.4542 8.693 11.6247 8.693 11.8023V60.0391C8.693 60.2167 8.76831 60.3871 8.90236 60.5128C9.03641 60.6384 9.21822 60.7089 9.40779 60.7089H51.3945C51.5841 60.7089 51.7659 60.6384 51.8999 60.5128C52.034 60.3871 52.1093 60.2167 52.1093 60.0391V11.8023C52.1093 11.6247 52.034 11.4542 51.8999 11.3286C51.7659 11.203 51.5841 11.1325 51.3945 11.1325H45.2473C44.6934 10.4362 44.0816 9.78212 43.4175 9.17643H53.5746C53.9022 9.17766 54.2159 9.30018 54.4475 9.51725C54.6792 9.73431 54.8099 10.0283 54.8112 10.3353V53.2273C54.8112 53.4049 54.8865 53.5753 55.0205 53.7009C55.1546 53.8265 55.3364 53.8971 55.526 53.8971C55.7156 53.8971 55.8974 53.8265 56.0314 53.7009C56.1655 53.5753 56.2408 53.4049 56.2408 53.2273V10.336C56.2408 9.6733 55.9599 9.03778 55.4599 8.5692C54.9599 8.10062 54.2817 7.8374 53.5746 7.8374H41.7449C40.294 6.80712 38.6774 5.99987 36.9558 5.44598V5.23833C36.9558 3.84904 36.3669 2.51663 35.3186 1.53426C34.2703 0.55188 32.8486 0 31.3661 0C29.8836 0 28.4619 0.55188 27.4136 1.53426C26.3654 2.51663 25.7765 3.84904 25.7765 5.23833V5.42587C24.0328 5.97945 22.3962 6.79383 20.9302 7.8374H7.22768C6.52057 7.8374 5.84242 8.10062 5.34242 8.5692C4.84242 9.03778 4.56152 9.6733 4.56152 10.336V13.759C4.56171 13.9365 4.6371 14.1067 4.77113 14.2322C4.90516 14.3577 5.08686 14.4282 5.27631 14.4282ZM50.6797 12.4722V59.3692H10.1226V12.4722H16.4842C16.1811 12.9452 15.9043 13.4326 15.6551 13.9325C15.605 14.035 15.5833 14.1476 15.5921 14.26C15.6008 14.3724 15.6397 14.4809 15.7051 14.5755C15.7701 14.6695 15.859 14.7468 15.9638 14.8006C16.0686 14.8544 16.186 14.8829 16.3055 14.8837H46.3767C46.4974 14.8836 46.6162 14.855 46.7221 14.8005C46.8279 14.746 46.9174 14.6674 46.9822 14.5719C47.047 14.4764 47.0852 14.3672 47.093 14.2542C47.1009 14.1413 47.0782 14.0283 47.0271 13.9258C46.777 13.4301 46.4982 12.9411 46.198 12.4722H50.6797ZM26.6985 6.55728C26.8452 6.51475 26.9735 6.42941 27.0648 6.31373C27.1561 6.19805 27.2056 6.05808 27.206 5.9142V5.23763C27.206 4.20366 27.6443 3.21204 28.4245 2.48091C29.2047 1.74978 30.2628 1.33907 31.3661 1.33907C32.4694 1.33907 33.5276 1.74978 34.3077 2.48091C35.0879 3.21204 35.5262 4.20366 35.5262 5.23763V5.92761C35.5266 6.07149 35.5761 6.21146 35.6674 6.32714C35.7587 6.44282 35.887 6.52816 36.0337 6.57069C39.9329 7.70797 43.218 10.2039 45.2116 13.5439H17.4706C19.4691 10.1862 22.7757 7.68278 26.6985 6.55728Z" fill="#333333"/>
<path d="M31.3417 9.86905C31.8531 9.86892 32.3531 9.72667 32.7783 9.46028C33.2034 9.1939 33.5348 8.81535 33.7304 8.37249C33.926 7.92964 33.9772 7.44238 33.8773 6.9723C33.7774 6.50223 33.5311 6.07044 33.1694 5.73157C32.8077 5.39269 32.3469 5.16195 31.8452 5.06849C31.3436 4.97503 30.8237 5.02307 30.3512 5.20652C29.8786 5.38997 29.4748 5.70059 29.1907 6.09912C28.9065 6.49766 28.7549 6.9662 28.7549 7.44551C28.7556 8.08817 29.0284 8.7043 29.5134 9.15867C29.9984 9.61304 30.6559 9.86852 31.3417 9.86905ZM31.3417 6.36169C31.5704 6.36182 31.7939 6.42547 31.984 6.54465C32.1741 6.66382 32.3223 6.83316 32.4097 7.03122C32.4971 7.22928 32.5199 7.44718 32.4752 7.65737C32.4305 7.86757 32.3203 8.06063 32.1585 8.21214C31.9967 8.36365 31.7907 8.46679 31.5663 8.50856C31.342 8.55033 31.1095 8.52884 30.8982 8.44678C30.6869 8.36473 30.5064 8.2258 30.3793 8.04758C30.2523 7.86936 30.1845 7.65984 30.1845 7.44551C30.1846 7.158 30.3067 6.88232 30.5237 6.67908C30.7407 6.47584 31.0349 6.36169 31.3417 6.36169Z" fill="#333333"/>
<path d="M45.9066 37.8941H35.3685V24.5002L37.4414 25.7059C37.5604 25.7761 37.6991 25.8115 37.8398 25.8077C37.9804 25.8039 38.1166 25.761 38.2312 25.6845L44.8637 21.2935L44.3591 23.705C44.3226 23.8794 44.3615 24.0602 44.4673 24.2077C44.5731 24.3552 44.737 24.4573 44.9231 24.4915C45.1091 24.5257 45.3021 24.4892 45.4594 24.3901C45.6168 24.291 45.7257 24.1373 45.7622 23.9629L46.6107 19.9109C46.6107 19.9109 46.6107 19.9056 46.6107 19.9029C46.6366 19.7346 46.5961 19.5633 46.4969 19.421C46.3977 19.2787 46.2465 19.1752 46.0717 19.1299L42.1125 18.259C42.0211 18.239 41.9263 18.2361 41.8337 18.2504C41.7411 18.2647 41.6523 18.2959 41.5726 18.3424C41.4928 18.3888 41.4236 18.4495 41.3689 18.521C41.3142 18.5925 41.2751 18.6734 41.2537 18.7591C41.2323 18.8448 41.2292 18.9335 41.2445 19.0204C41.2597 19.1072 41.2931 19.1903 41.3426 19.2651C41.3922 19.3398 41.4569 19.4047 41.5332 19.456C41.6095 19.5072 41.6959 19.5439 41.7873 19.5639L44.1983 20.0931L37.7938 24.3334L35.0347 22.7257C34.9018 22.6517 34.7474 22.6187 34.5934 22.6316C34.4394 22.6445 34.2937 22.7025 34.1769 22.7974L28.0626 27.9768L24.826 26.7971C24.7187 26.7605 24.6039 26.7476 24.4903 26.7592C24.3768 26.7708 24.2676 26.8067 24.1713 26.8641L15.6102 32.1889V16.8309C15.6102 16.6532 15.5349 16.4828 15.4009 16.3572C15.2668 16.2316 15.085 16.161 14.8955 16.161C14.7059 16.161 14.5241 16.2316 14.39 16.3572C14.256 16.4828 14.1807 16.6532 14.1807 16.8309V38.564C14.1807 38.7416 14.256 38.912 14.39 39.0376C14.5241 39.1633 14.7059 39.2338 14.8955 39.2338H45.9088C46.0983 39.2338 46.2802 39.1633 46.4142 39.0376C46.5483 38.912 46.6236 38.7416 46.6236 38.564C46.6236 38.3863 46.5483 38.216 46.4142 38.0903C46.2802 37.9647 46.0983 37.8941 45.9088 37.8941H45.9066ZM28.6923 29.2461L33.9389 24.8009V37.8941H25.2792V28.4008L27.9532 29.3748C28.0771 29.4193 28.2117 29.4309 28.3422 29.4082C28.4726 29.3855 28.5938 29.3294 28.6923 29.2461ZM15.6117 33.7939L23.8532 28.6681V37.8921H15.6117V33.7939Z" fill="#FFDB2D"/>
<path d="M21.3755 41.3379H17.2082C16.7865 41.3377 16.382 41.4942 16.0832 41.7731C15.7844 42.052 15.6158 42.4305 15.6143 42.8257V46.1549C15.6158 46.55 15.7844 46.9285 16.0832 47.2072C16.382 47.486 16.7866 47.6424 17.2082 47.642H21.3755C21.7972 47.6425 22.2018 47.4862 22.5007 47.2074C22.7995 46.9286 22.9681 46.5501 22.9694 46.1549V42.8257C22.9681 42.4304 22.7995 42.0518 22.5007 41.7729C22.2019 41.494 21.7972 41.3375 21.3755 41.3379ZM21.5399 46.1549C21.5382 46.1946 21.5201 46.2322 21.4894 46.2597C21.4588 46.2872 21.4179 46.3025 21.3755 46.3023H17.2082C17.1657 46.3027 17.1248 46.2875 17.0941 46.2599C17.0633 46.2324 17.0453 46.1947 17.0438 46.1549V42.8257C17.0451 42.7857 17.0631 42.7479 17.0938 42.7202C17.1245 42.6926 17.1656 42.6773 17.2082 42.6776H21.3755C21.418 42.6774 21.459 42.6928 21.4897 42.7204C21.5204 42.748 21.5384 42.7858 21.5399 42.8257V46.1549Z" fill="#333333"/>
<path d="M21.3755 49.3762H17.2082C16.7865 49.376 16.382 49.5325 16.0832 49.8114C15.7844 50.0903 15.6158 50.4688 15.6143 50.864V54.1932C15.6158 54.5883 15.7844 54.9668 16.0832 55.2456C16.382 55.5243 16.7866 55.6807 17.2082 55.6803H21.3755C21.7972 55.6809 22.2018 55.5246 22.5007 55.2458C22.7995 54.967 22.9681 54.5884 22.9694 54.1932V50.864C22.9681 50.4688 22.7995 50.0901 22.5007 49.8112C22.2019 49.5323 21.7972 49.3759 21.3755 49.3762ZM21.5399 54.1932C21.5382 54.233 21.5201 54.2706 21.4894 54.298C21.4588 54.3255 21.4179 54.3408 21.3755 54.3406H17.2082C17.1657 54.341 17.1248 54.3258 17.0941 54.2983C17.0633 54.2707 17.0453 54.233 17.0438 54.1932V50.864C17.0451 50.8241 17.0631 50.7862 17.0938 50.7586C17.1245 50.7309 17.1656 50.7156 17.2082 50.716H21.3755C21.418 50.7158 21.459 50.7311 21.4897 50.7587C21.5204 50.7864 21.5384 50.8241 21.5399 50.864V54.1932Z" fill="#333333"/>
<path d="M44.4703 42.3694H26.958C26.7684 42.3694 26.5866 42.4399 26.4525 42.5655C26.3185 42.6911 26.2432 42.8614 26.2432 43.039C26.2432 43.2166 26.3185 43.3869 26.4525 43.5125C26.5866 43.6381 26.7684 43.7086 26.958 43.7086H44.4703C44.6599 43.7086 44.8417 43.6381 44.9757 43.5125C45.1098 43.3869 45.1851 43.2166 45.1851 43.039C45.1851 42.8614 45.1098 42.6911 44.9757 42.5655C44.8417 42.4399 44.6599 42.3694 44.4703 42.3694Z" fill="#333333"/>
<path d="M26.958 46.6112H36.7863C36.9759 46.6112 37.1577 46.5407 37.2917 46.4151C37.4258 46.2895 37.5011 46.1192 37.5011 45.9417C37.5011 45.7641 37.4258 45.5938 37.2917 45.4682C37.1577 45.3426 36.9759 45.2721 36.7863 45.2721H26.958C26.7684 45.2721 26.5866 45.3426 26.4525 45.4682C26.3185 45.5938 26.2432 45.7641 26.2432 45.9417C26.2432 46.1192 26.3185 46.2895 26.4525 46.4151C26.5866 46.5407 26.7684 46.6112 26.958 46.6112Z" fill="#333333"/>
<path d="M44.4703 50.4077H26.958C26.7684 50.4077 26.5866 50.4783 26.4525 50.6038C26.3185 50.7294 26.2432 50.8997 26.2432 51.0773C26.2432 51.2549 26.3185 51.4252 26.4525 51.5508C26.5866 51.6764 26.7684 51.7469 26.958 51.7469H44.4703C44.6599 51.7469 44.8417 51.6764 44.9757 51.5508C45.1098 51.4252 45.1851 51.2549 45.1851 51.0773C45.1851 50.8997 45.1098 50.7294 44.9757 50.6038C44.8417 50.4783 44.6599 50.4077 44.4703 50.4077Z" fill="#333333"/>
<path d="M36.7863 53.3104H26.958C26.7684 53.3104 26.5866 53.381 26.4525 53.5066C26.3185 53.6321 26.2432 53.8024 26.2432 53.98C26.2432 54.1576 26.3185 54.3279 26.4525 54.4535C26.5866 54.579 26.7684 54.6496 26.958 54.6496H36.7863C36.9759 54.6496 37.1577 54.579 37.2917 54.4535C37.4258 54.3279 37.5011 54.1576 37.5011 53.98C37.5011 53.8024 37.4258 53.6321 37.2917 53.5066C37.1577 53.381 36.9759 53.3104 36.7863 53.3104Z" fill="#333333"/>
</svg>
